# This file uses centimeters as units for non-parametric coordinates.

mtllib camera.mtl
g default
v 26.000076 -1.184615 1.906558
v 25.729887 -1.184615 1.906550
v 26.272367 -1.184615 1.906550
v 25.729887 -1.383249 1.906550
v 26.000076 -1.383249 1.906550
v 26.272367 -1.383249 1.906550
v 25.729887 -1.184615 2.355984
v 25.729887 -1.383249 2.355983
v 25.999041 -1.383249 2.355984
v 26.272371 -1.383249 2.355983
v 26.272371 -1.184615 2.355984
v 26.000076 -0.668101 1.906550
v 25.729887 -0.668101 1.906550
v 25.729887 -0.668101 2.355984
v 25.999041 -0.668101 2.355984
v 26.272367 -0.668101 1.906550
v 26.272371 -0.668100 2.355984
v 25.395075 -1.184615 1.906550
v 25.448997 -1.351435 1.906550
v 25.448997 -1.351435 2.355983
v 25.395075 -1.184615 2.355984
v 25.448997 -0.699915 2.355984
v 25.448997 -0.699916 1.906550
v 26.607180 -1.184615 1.906547
v 26.553257 -1.351435 1.906547
v 26.607183 -1.184615 2.355981
v 26.553261 -1.351435 2.355980
v 26.553257 -0.699915 1.906547
v 26.553261 -0.699915 2.355981
v 25.395075 -0.921445 2.355984
v 25.395075 -0.921445 1.906550
v 25.729887 -0.921445 1.906550
v 26.000076 -0.921445 1.906554
v 26.272367 -0.921445 1.906550
v 26.607180 -0.921445 1.906547
v 26.607183 -0.921445 2.355981
v 26.272371 -0.921445 2.355984
v 25.729887 -0.921445 2.355984
v 25.731987 -1.099424 2.426659
v 25.807714 -1.282081 2.426658
v 25.999058 -1.355295 2.426659
v 26.194544 -1.282081 2.426658
v 26.270271 -1.099424 2.426659
v 25.999058 -0.834878 2.426659
v 25.807714 -0.908091 2.426659
v 26.194544 -0.908091 2.426659
v 25.731987 -1.099424 2.538787
v 25.807714 -1.282081 2.538787
v 25.999058 -1.355295 2.538787
v 26.194544 -1.282081 2.538787
v 26.270271 -1.099424 2.538787
v 25.999058 -0.834878 2.538787
v 25.807714 -0.908091 2.538787
v 26.194544 -0.908091 2.538787
v 25.731853 -1.099427 2.661446
v 25.807581 -1.282220 2.661446
v 25.999056 -1.355434 2.661446
v 26.194674 -1.282220 2.661445
v 26.270401 -1.099427 2.661446
v 25.999056 -0.834745 2.661446
v 25.807581 -0.907958 2.661446
v 26.194674 -0.907959 2.661446
v 25.731894 -1.099426 2.624310
v 25.807623 -1.282178 2.624310
v 25.999058 -1.355392 2.624310
v 25.999128 -1.099426 2.624724
v 26.194635 -1.282178 2.624310
v 26.270363 -1.099426 2.624310
v 25.999056 -0.834785 2.624310
v 25.807619 -0.907998 2.624310
v 26.194635 -0.907999 2.624310
vt 0.756729 0.484753
vt 0.761581 0.472809
vt 0.774119 0.467853
vt 0.774155 0.484819
vt 0.787019 0.472833
vt 0.791865 0.484754
vt 0.774119 0.502399
vt 0.761632 0.497457
vt 0.786968 0.497433
vt 0.754330 0.484728
vt 0.759900 0.471090
vt 0.774108 0.465378
vt 0.788702 0.471108
vt 0.794268 0.484729
vt 0.774108 0.504880
vt 0.759942 0.499177
vt 0.788660 0.499158
vt 0.728438 0.484390
vt 0.741344 0.452191
vt 0.752339 0.463406
vt 0.743723 0.484590
vt 0.773956 0.439285
vt 0.774045 0.454583
vt 0.807274 0.452191
vt 0.796271 0.463418
vt 0.820180 0.484390
vt 0.804884 0.484590
vt 0.773956 0.531024
vt 0.741344 0.518118
vt 0.752366 0.506882
vt 0.774045 0.515700
vt 0.807274 0.518118
vt 0.796245 0.506870
vt 0.463513 0.466334
vt 0.449019 0.488381
vt 0.415356 0.488328
vt 0.420673 0.470780
vt 0.449181 0.517356
vt 0.415907 0.516010
vt 0.509276 0.488366
vt 0.495069 0.466325
vt 0.536718 0.470746
vt 0.542734 0.488291
vt 0.510075 0.517371
vt 0.543285 0.515972
vt 0.508632 0.542630
vt 0.538083 0.539275
vt 0.479908 0.542639
vt 0.451623 0.542647
vt 0.422038 0.539309
vt 0.458523 0.478271
vt 0.450948 0.497485
vt 0.478776 0.467872
vt 0.478477 0.470564
vt 0.499174 0.478258
vt 0.507515 0.497469
vt 0.459307 0.517608
vt 0.479568 0.525303
vt 0.499958 0.517596
vt 0.438285 0.419208
vt 0.440909 0.433358
vt 0.422360 0.459991
vt 0.416792 0.434091
vt 0.451347 0.448973
vt 0.479229 0.450723
vt 0.479206 0.375710
vt 0.457247 0.372726
vt 0.451334 0.344548
vt 0.479110 0.344539
vt 0.507329 0.448971
vt 0.517619 0.433344
vt 0.520120 0.419193
vt 0.541876 0.434054
vt 0.536315 0.459958
vt 0.501338 0.372722
vt 0.507316 0.344531
vt 0.479249 0.429887
vt 0.457563 0.430725
vt 0.458180 0.398591
vt 0.479206 0.400518
vt 0.416788 0.388473
vt 0.435018 0.390263
vt 0.501104 0.430714
vt 0.500344 0.398586
vt 0.523169 0.389050
vt 0.541872 0.388435
vt 0.435499 0.361364
vt 0.422348 0.350071
vt 0.536303 0.350037
vt 0.522785 0.362955
vt 0.000000 0.000000
vt 1.000000 0.000000
vt 1.000000 1.000000
vt 0.000000 1.000000
vt 0.000000 0.000000
vt 1.000000 0.000000
vt 1.000000 1.000000
vt 0.000000 1.000000
vn -0.001081 0.000007 0.999999
vn -0.001085 -0.001131 0.999999
vn -0.001085 -0.001131 0.999999
vn -0.000000 -0.000001 1.000000
vn 0.001066 -0.001129 0.999999
vn 0.001066 -0.001129 0.999999
vn 0.001061 0.000007 1.000000
vn -0.992228 -0.124431 0.000000
vn -0.951525 -0.307571 0.000000
vn -0.951525 -0.307571 0.000000
vn -0.992228 -0.124430 0.000000
vn -0.057689 -0.998335 0.000000
vn 0.000000 -1.000000 0.000001
vn 0.000000 -1.000000 0.000001
vn -0.057689 -0.998335 0.000000
vn -0.000000 1.000000 -0.000001
vn -0.057690 0.998335 -0.000001
vn -0.057690 0.998335 -0.000001
vn -0.000000 1.000000 -0.000001
vn 0.057363 -0.998353 0.000000
vn 0.057363 -0.998353 0.000000
vn 0.951529 -0.307560 -0.000008
vn 0.992229 -0.124426 -0.000008
vn 0.992229 -0.124425 -0.000008
vn 0.951529 -0.307560 -0.000008
vn 0.057363 0.998353 -0.000001
vn 0.057363 0.998353 -0.000001
vn -0.000000 -0.000008 -1.000000
vn 0.000007 -0.000002 -1.000000
vn 0.000007 -0.000004 -1.000000
vn -0.000000 -0.000008 -1.000000
vn -0.993869 0.110567 -0.000000
vn -0.993869 0.110567 -0.000000
vn 0.000002 0.001085 0.999999
vn -0.001077 0.001086 0.999999
vn -0.000013 -0.000002 -1.000000
vn -0.000012 -0.000004 -1.000000
vn 0.001057 0.001083 0.999999
vn 0.993869 0.110564 -0.000009
vn 0.993869 0.110564 -0.000009
vn -0.000000 0.000001 -1.000000
vn -0.000000 0.000001 -1.000000
vn 0.000000 0.000000 -1.000000
vn -0.112543 -0.993647 0.000000
vn -0.112543 -0.993647 0.000000
vn 0.000000 -0.000001 1.000000
vn 0.000000 -0.000001 1.000000
vn 0.000000 -0.000000 1.000000
vn 0.000000 -0.000001 1.000000
vn 0.000000 0.000000 1.000000
vn 0.000000 0.000000 1.000000
vn -0.112544 0.993647 -0.000001
vn -0.112544 0.993647 -0.000001
vn 0.000000 -0.000000 -1.000000
vn -0.000009 0.000002 -1.000000
vn -0.000009 0.000001 -1.000000
vn -0.000009 0.000002 -1.000000
vn 0.000008 -0.000002 1.000000
vn 0.000009 -0.000004 1.000000
vn 0.000009 -0.000004 1.000000
vn 0.000008 -0.000001 1.000000
vn 0.112543 -0.993647 -0.000000
vn 0.112543 -0.993647 -0.000000
vn -0.000009 -0.000000 -1.000000
vn 0.112543 0.993647 -0.000002
vn 0.112543 0.993647 -0.000002
vn 0.000008 0.000000 1.000000
vn 0.000009 0.000000 1.000000
vn -0.971630 0.236505 -0.000000
vn -0.971630 0.236505 -0.000000
vn 0.000004 -0.000004 -1.000000
vn 0.000000 -0.000001 -1.000000
vn -0.000000 -0.000008 -1.000000
vn -0.000009 -0.000005 -1.000000
vn -0.000010 -0.000001 -1.000000
vn 0.971632 0.236497 -0.000008
vn 0.971632 0.236497 -0.000008
vn 0.000006 0.000001 1.000000
vn 0.000009 0.000001 1.000000
vn -0.000001 0.000000 1.000000
vn 0.000000 0.000000 1.000000
vn 0.000000 0.000000 1.000000
vn 0.000000 0.000000 1.000000
vn -0.761634 -0.151266 0.630105
vn -0.761634 -0.151266 0.630105
vn -0.761634 -0.151266 0.630105
vn -0.761634 -0.151266 0.630105
vn -0.111661 -0.702319 0.703051
vn -0.111661 -0.702318 0.703051
vn -0.111661 -0.702318 0.703051
vn -0.111661 -0.702318 0.703051
vn 0.109791 -0.703019 0.702645
vn 0.109791 -0.703019 0.702645
vn 0.109791 -0.703019 0.702645
vn 0.109791 -0.703019 0.702645
vn 0.761633 -0.151260 0.630108
vn 0.761633 -0.151260 0.630108
vn 0.761633 -0.151260 0.630108
vn 0.761633 -0.151260 0.630108
vn -0.369600 0.521194 0.769255
vn -0.369600 0.521194 0.769255
vn -0.369600 0.521194 0.769255
vn -0.369600 0.521194 0.769255
vn -0.901806 0.150248 0.405180
vn -0.901806 0.150248 0.405180
vn -0.901806 0.150248 0.405180
vn -0.901806 0.150248 0.405180
vn 0.901806 0.150248 0.405181
vn 0.901806 0.150248 0.405181
vn 0.901806 0.150248 0.405181
vn 0.901806 0.150248 0.405181
vn 0.364959 0.523944 0.769602
vn 0.364959 0.523944 0.769602
vn 0.364959 0.523944 0.769602
vn 0.364959 0.523944 0.769602
vn -0.923756 -0.382981 0.000000
vn -0.923756 -0.382981 0.000000
vn -0.923784 -0.382914 -0.000641
vn -0.923784 -0.382914 -0.000641
vn -0.357363 -0.933966 0.000000
vn -0.357363 -0.933966 0.000000
vn -0.357307 -0.933987 -0.000655
vn -0.357307 -0.933987 -0.000655
vn 0.350733 -0.936476 0.000000
vn 0.350733 -0.936476 0.000000
vn 0.350678 -0.936496 -0.000648
vn 0.350678 -0.936496 -0.000648
vn 0.923756 -0.382981 0.000000
vn 0.923756 -0.382981 0.000000
vn 0.923784 -0.382915 -0.000626
vn 0.923784 -0.382915 -0.000626
vn -0.357364 0.933965 0.000000
vn -0.357364 0.933965 0.000000
vn -0.357308 0.933987 -0.000633
vn -0.357308 0.933987 -0.000633
vn -0.929819 0.368017 0.000000
vn -0.929819 0.368017 0.000000
vn -0.929844 0.367954 -0.000631
vn -0.929844 0.367954 -0.000631
vn 0.929819 0.368017 0.000000
vn 0.929819 0.368017 0.000000
vn 0.929844 0.367954 -0.000616
vn 0.929844 0.367954 -0.000616
vn 0.350733 0.936476 0.000000
vn 0.350733 0.936476 0.000000
vn 0.350678 0.936496 -0.000626
vn 0.350678 0.936496 -0.000626
vn -0.923808 -0.382853 -0.001226
vn -0.923808 -0.382853 -0.001226
vn -0.357256 -0.934006 -0.001253
vn -0.357256 -0.934006 -0.001253
vn 0.350629 -0.936514 -0.001241
vn 0.350629 -0.936514 -0.001241
vn 0.923808 -0.382853 -0.001198
vn 0.923808 -0.382854 -0.001198
vn -0.357255 0.934006 -0.001211
vn -0.357255 0.934006 -0.001211
vn -0.929866 0.367897 -0.001208
vn -0.929866 0.367897 -0.001208
vn 0.929866 0.367898 -0.001178
vn 0.929866 0.367898 -0.001178
vn 0.350628 0.936514 -0.001199
vn 0.350628 0.936514 -0.001199
vn 0.923839 0.382780 0.001240
vn 0.923838 0.382780 0.001240
vn 0.923839 0.382781 0.001240
vn 0.923839 0.382780 0.001240
vn 0.357181 0.934035 0.001267
vn 0.357181 0.934034 0.001267
vn 0.357181 0.934035 0.001267
vn 0.357181 0.934035 0.001267
vn -0.350557 0.936540 0.001231
vn -0.350557 0.936540 0.001231
vn -0.350557 0.936540 0.001231
vn -0.350557 0.936541 0.001231
vn -0.923841 0.382774 0.001169
vn -0.923841 0.382774 0.001169
vn -0.923841 0.382774 0.001169
vn -0.923841 0.382774 0.001169
vn 0.357181 -0.934035 0.001194
vn 0.357181 -0.934035 0.001194
vn 0.357181 -0.934035 0.001194
vn 0.357181 -0.934035 0.001194
vn 0.929895 -0.367823 0.001176
vn 0.929895 -0.367823 0.001176
vn 0.929895 -0.367823 0.001176
vn 0.929895 -0.367823 0.001176
vn -0.929895 -0.367824 0.001148
vn -0.929895 -0.367824 0.001148
vn -0.929895 -0.367824 0.001148
vn -0.929895 -0.367824 0.001148
vn -0.350554 -0.936542 0.001196
vn -0.350554 -0.936542 0.001196
vn -0.350554 -0.936542 0.001196
vn -0.350554 -0.936542 0.001196
vn -0.000015 0.000020 -1.000000
vn -0.000015 0.000020 -1.000000
vn -0.000015 0.000020 -1.000000
vn -0.000015 0.000020 -1.000000
vn 0.000016 0.000021 -1.000000
vn 0.000016 0.000021 -1.000000
vn 0.000016 0.000021 -1.000000
vn 0.000016 0.000021 -1.000000
s 1
g pasted__pasted__polySurface18 group
usemtl pasted__lambert12SG
f 63/1/1 64/2/2 65/3/3 66/4/4
f 65/3/5 67/5/6 68/6/7 66/4/4
s 3
f 18/60/8 19/61/9 20/62/10 21/63/11
s 4
f 4/64/12 5/65/13 9/53/14 8/34/15
s 5
f 12/66/16 13/67/17 14/68/18 15/69/19
s 4
f 5/65/13 6/70/20 10/41/21 9/53/14
s 6
f 25/71/22 24/72/23 26/73/24 27/74/25
s 5
f 16/75/26 12/66/16 15/69/19 17/76/27
s 7
f 1/77/28 2/78/29 32/79/30 33/80/31
s 3
f 18/60/8 21/63/11 30/81/32 31/82/33
s 1
f 63/1/1 66/4/4 69/7/34 70/8/35
s 7
f 3/83/36 1/77/28 33/80/31 34/84/37
s 1
f 66/4/4 68/6/7 71/9/38 69/7/34
s 6
f 26/73/24 24/72/23 35/85/39 36/86/40
s 7
f 2/78/29 4/64/41 19/61/42 18/60/43
s 4
f 4/64/12 8/34/15 20/62/44 19/61/45
s 8
f 8/34/46 7/35/47 21/36/48 20/37/49
f 7/35/47 38/38/50 30/39/51 21/36/48
s 5
f 14/68/18 13/67/17 23/87/52 22/88/53
s 7
f 32/79/30 2/78/29 18/60/43 31/82/54
f 6/70/55 3/83/36 24/72/56 25/71/57
s 9
f 11/40/58 10/41/59 27/42/60 26/43/61
s 4
f 10/41/21 6/70/20 25/71/62 27/74/63
s 7
f 3/83/36 34/84/37 35/85/64 24/72/56
s 5
f 16/75/26 17/76/27 29/89/65 28/90/66
s 9
f 37/44/67 11/40/58 26/43/61 36/45/68
s 3
f 31/82/33 30/81/32 22/88/69 23/87/70
s 7
f 13/67/71 32/79/30 31/82/54 23/87/72
f 33/80/31 32/79/30 13/67/71 12/66/73
f 34/84/37 33/80/31 12/66/73 16/75/74
f 35/85/64 34/84/37 16/75/74 28/90/75
s 6
f 36/86/40 35/85/39 28/90/76 29/89/77
s 9
f 17/46/78 37/44/67 36/45/68 29/47/79
f 15/48/80 37/44/67 17/46/78
s 8
f 38/38/50 15/48/81 14/49/82
f 30/39/51 38/38/50 14/49/82 22/50/83
s off
f 7/35/84 8/34/85 40/51/86 39/52/87
f 8/34/88 9/53/89 41/54/90 40/51/91
f 9/53/92 10/41/93 42/55/94 41/54/95
f 10/41/96 11/40/97 43/56/98 42/55/99
f 15/48/100 38/38/101 45/57/102 44/58/103
f 38/38/104 7/35/105 39/52/106 45/57/107
f 11/40/108 37/44/109 46/59/110 43/56/111
f 37/44/112 15/48/113 44/58/114 46/59/115
s 10
f 39/18/116 40/19/117 48/20/118 47/21/119
s 11
f 40/19/120 41/22/121 49/23/122 48/20/123
s 12
f 41/22/124 42/24/125 50/25/126 49/23/127
s 13
f 42/24/128 43/26/129 51/27/130 50/25/131
s 14
f 44/28/132 45/29/133 53/30/134 52/31/135
s 15
f 45/29/136 39/18/137 47/21/138 53/30/139
s 16
f 43/26/140 46/32/141 54/33/142 51/27/143
s 17
f 46/32/144 44/28/145 52/31/146 54/33/147
s 10
f 47/21/119 48/20/118 56/11/148 55/10/149
s 11
f 48/20/123 49/23/122 57/12/150 56/11/151
s 12
f 49/23/127 50/25/126 58/13/152 57/12/153
s 13
f 50/25/131 51/27/130 59/14/154 58/13/155
s 14
f 52/31/135 53/30/134 61/16/156 60/15/157
s 15
f 53/30/139 47/21/138 55/10/158 61/16/159
s 16
f 51/27/143 54/33/142 62/17/160 59/14/161
s 17
f 54/33/147 52/31/146 60/15/162 62/17/163
s off
f 55/10/164 56/11/165 64/2/166 63/1/167
f 56/11/168 57/12/169 65/3/170 64/2/171
f 57/12/172 58/13/173 67/5/174 65/3/175
f 58/13/176 59/14/177 68/6/178 67/5/179
f 60/15/180 61/16/181 70/8/182 69/7/183
f 61/16/184 55/10/185 63/1/186 70/8/187
f 59/14/188 62/17/189 71/9/190 68/6/191
f 62/17/192 60/15/193 69/7/194 71/9/195
f 1/91/196 3/92/197 6/93/198 5/94/199
f 2/95/200 1/96/201 5/97/202 4/98/203
