# Blender v2.77 (sub 0) OBJ File: 'dresser_joined.blend'
# www.blender.org
mtllib dresser.mtl
o drawer_pulls_Plane.007
v -0.434709 1.186058 2.635380
v -0.436087 1.191972 2.716840
v -0.435042 1.141972 2.611831
v -0.416305 1.141972 2.716840
v -0.435042 1.191972 2.751843
v -0.435042 1.188480 2.764978
v -0.434725 1.158639 2.615206
v -0.433893 1.171922 2.622775
v -0.435042 1.191972 2.646834
v -0.436087 1.191972 2.681837
v -0.435042 1.125305 2.611831
v -0.416305 1.141972 2.681837
v -0.426192 1.141972 2.646834
v -0.435042 1.141972 2.786846
v -0.426192 1.141972 2.751843
v -0.416305 1.158639 2.716840
v -0.427649 1.175305 2.716840
v -0.416305 1.125305 2.716840
v -0.435042 1.125305 2.786846
v -0.426192 1.125305 2.751843
v -0.435042 1.171824 2.778967
v -0.434497 1.175305 2.751843
v -0.435042 1.158639 2.784209
v -0.426879 1.158639 2.751843
v -0.427649 1.175305 2.681837
v -0.434497 1.175305 2.646834
v -0.416305 1.158639 2.681837
v -0.426879 1.158639 2.646834
v -0.416305 1.125305 2.681837
v -0.426192 1.125305 2.646834
v -0.434709 1.186058 1.833570
v -0.436087 1.191972 1.915030
v -0.435042 1.141972 1.810021
v -0.416305 1.141972 1.915030
v -0.435042 1.191972 1.950033
v -0.435042 1.188480 1.963168
v -0.434725 1.158639 1.813395
v -0.433893 1.171922 1.820965
v -0.435042 1.191972 1.845024
v -0.436087 1.191972 1.880027
v -0.435042 1.125305 1.810021
v -0.416305 1.141972 1.880027
v -0.426192 1.141972 1.845024
v -0.435042 1.141972 1.985036
v -0.426192 1.141972 1.950033
v -0.416305 1.158639 1.915030
v -0.427649 1.175305 1.915030
v -0.416305 1.125305 1.915030
v -0.435042 1.125305 1.985036
v -0.426192 1.125305 1.950033
v -0.435042 1.171824 1.977156
v -0.434497 1.175305 1.950033
v -0.435042 1.158639 1.982398
v -0.426879 1.158639 1.950033
v -0.427649 1.175305 1.880027
v -0.434497 1.175305 1.845024
v -0.416305 1.158639 1.880027
v -0.426879 1.158639 1.845024
v -0.416305 1.125305 1.880027
v -0.426192 1.125305 1.845024
v -0.434709 1.186058 0.601510
v -0.436087 1.191972 0.682970
v -0.435042 1.141972 0.577961
v -0.416305 1.141972 0.682970
v -0.435042 1.191972 0.717973
v -0.435042 1.188480 0.731108
v -0.434725 1.158639 0.581335
v -0.433893 1.171922 0.588905
v -0.435042 1.191972 0.612964
v -0.436087 1.191972 0.647967
v -0.435042 1.125305 0.577961
v -0.416305 1.141972 0.647967
v -0.426192 1.141972 0.612964
v -0.435042 1.141972 0.752976
v -0.426192 1.141972 0.717973
v -0.416305 1.158639 0.682970
v -0.427649 1.175305 0.682970
v -0.416305 1.125305 0.682970
v -0.435042 1.125305 0.752976
v -0.426192 1.125305 0.717973
v -0.435042 1.171824 0.745096
v -0.434497 1.175305 0.717973
v -0.435042 1.158639 0.750338
v -0.426879 1.158639 0.717973
v -0.427649 1.175305 0.647967
v -0.434497 1.175305 0.612964
v -0.416305 1.158639 0.647967
v -0.426879 1.158639 0.612964
v -0.416305 1.125305 0.647967
v -0.426192 1.125305 0.612964
v -0.434709 1.186058 -0.246470
v -0.436087 1.191972 -0.165010
v -0.435042 1.141972 -0.270019
v -0.416305 1.141972 -0.165010
v -0.435042 1.191972 -0.130007
v -0.435042 1.188480 -0.116872
v -0.434725 1.158639 -0.266645
v -0.433893 1.171922 -0.259075
v -0.435042 1.191972 -0.235016
v -0.436087 1.191972 -0.200013
v -0.435042 1.125305 -0.270019
v -0.416305 1.141972 -0.200013
v -0.426192 1.141972 -0.235016
v -0.435042 1.141972 -0.095004
v -0.426192 1.141972 -0.130007
v -0.416305 1.158639 -0.165010
v -0.427649 1.175305 -0.165010
v -0.416305 1.125305 -0.165010
v -0.435042 1.125305 -0.095004
v -0.426192 1.125305 -0.130007
v -0.435042 1.171824 -0.102884
v -0.434497 1.175305 -0.130007
v -0.435042 1.158639 -0.097642
v -0.426879 1.158639 -0.130007
v -0.427649 1.175305 -0.200013
v -0.434497 1.175305 -0.235016
v -0.416305 1.158639 -0.200013
v -0.426879 1.158639 -0.235016
v -0.416305 1.125305 -0.200013
v -0.426192 1.125305 -0.235016
v -0.434709 2.120946 -0.246470
v -0.436087 2.126860 -0.165011
v -0.435042 2.076860 -0.270020
v -0.416305 2.076860 -0.165011
v -0.435042 2.126860 -0.130008
v -0.435042 2.123369 -0.116873
v -0.434725 2.093527 -0.266645
v -0.433893 2.106810 -0.259076
v -0.435042 2.126860 -0.235017
v -0.436087 2.126860 -0.200014
v -0.435042 2.060194 -0.270020
v -0.416305 2.076860 -0.200014
v -0.426192 2.076860 -0.235017
v -0.435042 2.076860 -0.095005
v -0.426192 2.076860 -0.130008
v -0.416305 2.093527 -0.165011
v -0.427649 2.110194 -0.165011
v -0.416305 2.060194 -0.165011
v -0.435042 2.060194 -0.095005
v -0.426192 2.060194 -0.130008
v -0.435042 2.106713 -0.102884
v -0.434497 2.110194 -0.130008
v -0.435042 2.093527 -0.097642
v -0.426879 2.093527 -0.130008
v -0.427649 2.110194 -0.200014
v -0.434497 2.110194 -0.235017
v -0.416305 2.093527 -0.200014
v -0.426879 2.093527 -0.235017
v -0.416305 2.060194 -0.200014
v -0.426192 2.060194 -0.235017
v -0.434709 2.120946 0.601514
v -0.436087 2.126860 0.682974
v -0.435042 2.076860 0.577965
v -0.416305 2.076860 0.682974
v -0.435042 2.126860 0.717977
v -0.435042 2.123369 0.731111
v -0.434725 2.093527 0.581339
v -0.433893 2.106810 0.588909
v -0.435042 2.126860 0.612968
v -0.436087 2.126860 0.647971
v -0.435042 2.060194 0.577965
v -0.416305 2.076860 0.647971
v -0.426192 2.076860 0.612968
v -0.435042 2.076860 0.752980
v -0.426192 2.076860 0.717977
v -0.416305 2.093527 0.682974
v -0.427649 2.110194 0.682974
v -0.416305 2.060194 0.682974
v -0.435042 2.060194 0.752980
v -0.426192 2.060194 0.717977
v -0.435042 2.106713 0.745100
v -0.434497 2.110194 0.717977
v -0.435042 2.093527 0.750342
v -0.426879 2.093527 0.717977
v -0.427649 2.110194 0.647971
v -0.434497 2.110194 0.612968
v -0.416305 2.093527 0.647971
v -0.426879 2.093527 0.612968
v -0.416305 2.060194 0.647971
v -0.426192 2.060194 0.612968
v -0.434709 2.120946 1.833573
v -0.436087 2.126860 1.915033
v -0.435042 2.076860 1.810024
v -0.416305 2.076860 1.915033
v -0.435042 2.126860 1.950036
v -0.435042 2.123369 1.963171
v -0.434725 2.093527 1.813399
v -0.433893 2.106810 1.820968
v -0.435042 2.126860 1.845027
v -0.436087 2.126860 1.880030
v -0.435042 2.060194 1.810024
v -0.416305 2.076860 1.880030
v -0.426192 2.076860 1.845027
v -0.435042 2.076860 1.985039
v -0.426192 2.076860 1.950036
v -0.416305 2.093527 1.915033
v -0.427649 2.110194 1.915033
v -0.416305 2.060194 1.915033
v -0.435042 2.060194 1.985039
v -0.426192 2.060194 1.950036
v -0.435042 2.106713 1.977160
v -0.434497 2.110194 1.950036
v -0.435042 2.093527 1.982402
v -0.426879 2.093527 1.950036
v -0.427649 2.110194 1.880030
v -0.434497 2.110194 1.845027
v -0.416305 2.093527 1.880030
v -0.426879 2.093527 1.845027
v -0.416305 2.060194 1.880030
v -0.426192 2.060194 1.845027
v -0.434709 2.120946 2.635376
v -0.436087 2.126861 2.716836
v -0.435042 2.076860 2.611827
v -0.416305 2.076860 2.716836
v -0.435042 2.126861 2.751839
v -0.435042 2.123369 2.764974
v -0.434725 2.093527 2.615201
v -0.433893 2.106810 2.622771
v -0.435042 2.126861 2.646830
v -0.436087 2.126861 2.681833
v -0.435042 2.060194 2.611827
v -0.416305 2.076860 2.681833
v -0.426192 2.076860 2.646830
v -0.435042 2.076860 2.786842
v -0.426192 2.076860 2.751839
v -0.416305 2.093527 2.716836
v -0.427649 2.110194 2.716836
v -0.416305 2.060194 2.716836
v -0.435042 2.060194 2.786842
v -0.426192 2.060194 2.751839
v -0.435042 2.106713 2.778962
v -0.434497 2.110194 2.751839
v -0.435042 2.093527 2.784204
v -0.426879 2.093527 2.751839
v -0.427649 2.110194 2.681833
v -0.434497 2.110194 2.646830
v -0.416305 2.093527 2.681833
v -0.426879 2.093527 2.646830
v -0.416305 2.060194 2.681833
v -0.426192 2.060194 2.646830
vn 0.9694 0.0354 -0.2429
vn 0.9597 0.0198 0.2805
vn 0.9623 0.0000 0.2718
vn 0.9695 0.0000 0.2451
vn 0.9625 0.2594 0.0798
vn 0.8496 0.4833 0.2114
vn 0.9996 0.0237 0.0176
vn 0.9504 0.2697 0.1549
vn 0.9688 0.0393 0.2447
vn 0.9992 0.0373 0.0166
vn 0.9575 0.2523 -0.1398
vn 0.8922 0.4517 0.0000
vn 0.9625 0.2594 -0.0798
vn 0.8267 0.5627 0.0000
vn 0.8496 0.4833 -0.2114
vn 1.0000 0.0000 0.0000
vn 0.9597 0.0198 -0.2805
vn 0.9695 0.0000 -0.2451
vn 0.9623 0.0000 -0.2718
vn 0.9694 0.0353 -0.2429
usemtl drawer_pull
s off
f 28//1 13//1 3//1 7//1
f 24//2 15//2 4//2 16//2
f 15//3 20//3 18//3 4//3
f 14//4 19//4 20//4 15//4
f 5//5 22//5 17//5 2//5
f 22//6 24//6 16//6 17//6
f 6//7 21//7 22//7 5//7
f 21//8 23//8 24//8 22//8
f 23//9 14//9 15//9 24//9
f 9//10 26//10 8//10 1//10
f 26//11 28//11 7//11 8//11
f 2//12 17//12 25//12 10//12
f 10//13 25//13 26//13 9//13
f 17//14 16//14 27//14 25//14
f 25//15 27//15 28//15 26//15
f 16//16 4//16 12//16 27//16
f 27//17 12//17 13//17 28//17
f 13//18 30//18 11//18 3//18
f 4//16 18//16 29//16 12//16
f 12//19 29//19 30//19 13//19
f 58//1 43//1 33//1 37//1
f 54//2 45//2 34//2 46//2
f 45//3 50//3 48//3 34//3
f 44//4 49//4 50//4 45//4
f 35//5 52//5 47//5 32//5
f 52//6 54//6 46//6 47//6
f 36//7 51//7 52//7 35//7
f 51//8 53//8 54//8 52//8
f 53//9 44//9 45//9 54//9
f 39//10 56//10 38//10 31//10
f 56//11 58//11 37//11 38//11
f 32//12 47//12 55//12 40//12
f 40//13 55//13 56//13 39//13
f 47//14 46//14 57//14 55//14
f 55//15 57//15 58//15 56//15
f 46//16 34//16 42//16 57//16
f 57//17 42//17 43//17 58//17
f 43//18 60//18 41//18 33//18
f 34//16 48//16 59//16 42//16
f 42//19 59//19 60//19 43//19
f 88//20 73//20 63//20 67//20
f 84//2 75//2 64//2 76//2
f 75//3 80//3 78//3 64//3
f 74//4 79//4 80//4 75//4
f 65//5 82//5 77//5 62//5
f 82//6 84//6 76//6 77//6
f 66//7 81//7 82//7 65//7
f 81//8 83//8 84//8 82//8
f 83//9 74//9 75//9 84//9
f 69//10 86//10 68//10 61//10
f 86//11 88//11 67//11 68//11
f 62//12 77//12 85//12 70//12
f 70//13 85//13 86//13 69//13
f 77//14 76//14 87//14 85//14
f 85//15 87//15 88//15 86//15
f 76//16 64//16 72//16 87//16
f 87//17 72//17 73//17 88//17
f 73//18 90//18 71//18 63//18
f 64//16 78//16 89//16 72//16
f 72//19 89//19 90//19 73//19
f 118//20 103//20 93//20 97//20
f 114//2 105//2 94//2 106//2
f 105//3 110//3 108//3 94//3
f 104//4 109//4 110//4 105//4
f 95//5 112//5 107//5 92//5
f 112//6 114//6 106//6 107//6
f 96//7 111//7 112//7 95//7
f 111//8 113//8 114//8 112//8
f 113//9 104//9 105//9 114//9
f 99//10 116//10 98//10 91//10
f 116//11 118//11 97//11 98//11
f 92//12 107//12 115//12 100//12
f 100//13 115//13 116//13 99//13
f 107//14 106//14 117//14 115//14
f 115//15 117//15 118//15 116//15
f 106//16 94//16 102//16 117//16
f 117//17 102//17 103//17 118//17
f 103//18 120//18 101//18 93//18
f 94//16 108//16 119//16 102//16
f 102//19 119//19 120//19 103//19
f 148//1 133//1 123//1 127//1
f 144//2 135//2 124//2 136//2
f 135//3 140//3 138//3 124//3
f 134//4 139//4 140//4 135//4
f 125//5 142//5 137//5 122//5
f 142//6 144//6 136//6 137//6
f 126//7 141//7 142//7 125//7
f 141//8 143//8 144//8 142//8
f 143//9 134//9 135//9 144//9
f 129//10 146//10 128//10 121//10
f 146//11 148//11 127//11 128//11
f 122//12 137//12 145//12 130//12
f 130//13 145//13 146//13 129//13
f 137//14 136//14 147//14 145//14
f 145//15 147//15 148//15 146//15
f 136//16 124//16 132//16 147//16
f 147//17 132//17 133//17 148//17
f 133//18 150//18 131//18 123//18
f 124//16 138//16 149//16 132//16
f 132//19 149//19 150//19 133//19
f 178//20 163//20 153//20 157//20
f 174//2 165//2 154//2 166//2
f 165//3 170//3 168//3 154//3
f 164//4 169//4 170//4 165//4
f 155//5 172//5 167//5 152//5
f 172//6 174//6 166//6 167//6
f 156//7 171//7 172//7 155//7
f 171//8 173//8 174//8 172//8
f 173//9 164//9 165//9 174//9
f 159//10 176//10 158//10 151//10
f 176//11 178//11 157//11 158//11
f 152//12 167//12 175//12 160//12
f 160//13 175//13 176//13 159//13
f 167//14 166//14 177//14 175//14
f 175//15 177//15 178//15 176//15
f 166//16 154//16 162//16 177//16
f 177//17 162//17 163//17 178//17
f 163//18 180//18 161//18 153//18
f 154//16 168//16 179//16 162//16
f 162//19 179//19 180//19 163//19
f 208//1 193//1 183//1 187//1
f 204//2 195//2 184//2 196//2
f 195//3 200//3 198//3 184//3
f 194//4 199//4 200//4 195//4
f 185//5 202//5 197//5 182//5
f 202//6 204//6 196//6 197//6
f 186//7 201//7 202//7 185//7
f 201//8 203//8 204//8 202//8
f 203//9 194//9 195//9 204//9
f 189//10 206//10 188//10 181//10
f 206//11 208//11 187//11 188//11
f 182//12 197//12 205//12 190//12
f 190//13 205//13 206//13 189//13
f 197//14 196//14 207//14 205//14
f 205//15 207//15 208//15 206//15
f 196//16 184//16 192//16 207//16
f 207//17 192//17 193//17 208//17
f 193//18 210//18 191//18 183//18
f 184//16 198//16 209//16 192//16
f 192//19 209//19 210//19 193//19
f 238//20 223//20 213//20 217//20
f 234//2 225//2 214//2 226//2
f 225//3 230//3 228//3 214//3
f 224//4 229//4 230//4 225//4
f 215//5 232//5 227//5 212//5
f 232//6 234//6 226//6 227//6
f 216//7 231//7 232//7 215//7
f 231//8 233//8 234//8 232//8
f 233//9 224//9 225//9 234//9
f 219//10 236//10 218//10 211//10
f 236//11 238//11 217//11 218//11
f 212//12 227//12 235//12 220//12
f 220//13 235//13 236//13 219//13
f 227//14 226//14 237//14 235//14
f 235//15 237//15 238//15 236//15
f 226//16 214//16 222//16 237//16
f 237//17 222//17 223//17 238//17
f 223//18 240//18 221//18 213//18
f 214//16 228//16 239//16 222//16
f 222//19 239//19 240//19 223//19
o dresser_top_Cube.012
v -1.426422 2.647278 3.357026
v -0.463652 2.647278 3.357026
v -1.426422 2.647278 -0.878299
v -0.463652 2.647278 -0.878299
v -1.426422 2.615753 3.357026
v -0.463652 2.615753 3.357026
v -1.426422 2.615753 -0.878299
v -0.463652 2.615753 -0.878299
vn 0.0000 1.0000 0.0000
vn 0.0000 0.0000 -1.0000
vn 0.0000 -1.0000 0.0000
vn 0.0000 0.0000 1.0000
vn -1.0000 0.0000 0.0000
vn 1.0000 0.0000 0.0000
usemtl dresser_drawer
s off
f 242//21 244//21 243//21 241//21
f 244//22 248//22 247//22 243//22
f 248//23 246//23 245//23 247//23
f 246//24 242//24 241//24 245//24
f 241//25 243//25 247//25 245//25
f 246//26 248//26 244//26 242//26
o dresser_drawer_front_Cube.010
v -0.462291 0.828333 3.074294
v -0.462291 1.498037 3.074294
v -0.462291 0.828333 1.502440
v -0.462291 1.498037 1.502440
v -0.437515 0.828333 3.074294
v -0.437515 1.498037 3.074294
v -0.437515 0.828333 1.502440
v -0.437515 1.498037 1.502440
v -0.462291 0.828333 1.008792
v -0.462291 1.498037 1.008792
v -0.462291 0.828333 -0.563062
v -0.462291 1.498037 -0.563062
v -0.437515 0.828333 1.008792
v -0.437515 1.498037 1.008792
v -0.437515 0.828333 -0.563062
v -0.437515 1.498037 -0.563062
v -0.462291 1.754693 1.008792
v -0.462291 2.424397 1.008792
v -0.462291 1.754693 -0.563062
v -0.462291 2.424397 -0.563062
v -0.437515 1.754693 1.008792
v -0.437515 2.424397 1.008792
v -0.437515 1.754693 -0.563062
v -0.437515 2.424397 -0.563062
v -0.462292 1.754693 3.054586
v -0.462292 2.424397 3.054586
v -0.462292 1.754693 1.482732
v -0.462292 2.424397 1.482732
v -0.437516 1.754693 3.054586
v -0.437516 2.424397 3.054586
v -0.437516 1.754693 1.482732
v -0.437516 2.424397 1.482732
vn -1.0000 0.0000 0.0000
vn 0.0000 0.0000 -1.0000
vn 1.0000 -0.0000 0.0000
vn 0.0000 0.0000 1.0000
vn 0.0000 -1.0000 0.0000
vn 0.0000 1.0000 0.0000
usemtl dresser_drawer_front
s off
f 250//27 252//27 251//27 249//27
f 252//28 256//28 255//28 251//28
f 256//29 254//29 253//29 255//29
f 254//30 250//30 249//30 253//30
f 249//31 251//31 255//31 253//31
f 254//32 256//32 252//32 250//32
f 258//27 260//27 259//27 257//27
f 260//28 264//28 263//28 259//28
f 264//29 262//29 261//29 263//29
f 262//30 258//30 257//30 261//30
f 257//31 259//31 263//31 261//31
f 262//32 264//32 260//32 258//32
f 266//27 268//27 267//27 265//27
f 268//28 272//28 271//28 267//28
f 272//29 270//29 269//29 271//29
f 270//30 266//30 265//30 269//30
f 265//31 267//31 271//31 269//31
f 270//32 272//32 268//32 266//32
f 274//27 276//27 275//27 273//27
f 276//28 280//28 279//28 275//28
f 280//29 278//29 277//29 279//29
f 278//30 274//30 273//30 277//30
f 273//31 275//31 279//31 277//31
f 278//32 280//32 276//32 274//32
o dresser_body_Cube.006
v -1.432075 0.530828 3.347943
v -1.432075 2.606665 3.347943
v -1.432075 0.530828 -0.877301
v -1.432075 2.606665 -0.877301
v -0.467175 0.530828 3.347943
v -0.467175 2.606665 3.347943
v -0.467175 0.530828 -0.877301
v -0.467175 2.606665 -0.877301
vn -1.0000 0.0000 0.0000
vn 0.0000 0.0000 -1.0000
vn 1.0000 0.0000 0.0000
vn 0.0000 0.0000 1.0000
vn 0.0000 -1.0000 0.0000
vn 0.0000 1.0000 0.0000
usemtl dresser_body
s off
f 282//33 284//33 283//33 281//33
f 284//34 288//34 287//34 283//34
f 288//35 286//35 285//35 287//35
f 286//36 282//36 281//36 285//36
f 281//37 283//37 287//37 285//37
f 286//38 288//38 284//38 282//38
o dresser_drawer_Cube.002
v -0.484045 1.660944 3.268660
v -0.484045 2.513063 3.268660
v -0.484045 1.660944 1.268659
v -0.484045 2.513063 1.268659
v -0.452521 1.660944 3.268660
v -0.452521 2.513063 3.268660
v -0.452521 1.660944 1.268659
v -0.452521 2.513063 1.268659
v -0.484044 1.660944 1.209091
v -0.484044 2.513063 1.209091
v -0.484044 1.660944 -0.790909
v -0.484044 2.513063 -0.790909
v -0.452520 1.660944 1.209091
v -0.452520 2.513063 1.209091
v -0.452520 1.660944 -0.790909
v -0.452520 2.513063 -0.790909
v -0.484044 0.741399 3.268660
v -0.484044 1.593518 3.268660
v -0.484044 0.741399 1.268659
v -0.484044 1.593518 1.268659
v -0.452520 0.741399 3.268660
v -0.452520 1.593518 3.268660
v -0.452520 0.741399 1.268659
v -0.452520 1.593518 1.268659
v -0.484044 0.741399 1.207412
v -0.484044 1.593518 1.207412
v -0.484044 0.741399 -0.792588
v -0.484044 1.593518 -0.792588
v -0.452520 0.741399 1.207412
v -0.452520 1.593518 1.207412
v -0.452520 0.741399 -0.792588
v -0.452520 1.593518 -0.792588
vn -1.0000 0.0000 0.0000
vn 0.0000 0.0000 -1.0000
vn 1.0000 0.0000 0.0000
vn 0.0000 0.0000 1.0000
vn 0.0000 -1.0000 0.0000
vn 0.0000 1.0000 0.0000
usemtl dresser_drawer
s off
f 290//39 292//39 291//39 289//39
f 292//40 296//40 295//40 291//40
f 296//41 294//41 293//41 295//41
f 294//42 290//42 289//42 293//42
f 289//43 291//43 295//43 293//43
f 294//44 296//44 292//44 290//44
f 298//39 300//39 299//39 297//39
f 300//40 304//40 303//40 299//40
f 304//41 302//41 301//41 303//41
f 302//42 298//42 297//42 301//42
f 297//43 299//43 303//43 301//43
f 302//44 304//44 300//44 298//44
f 306//39 308//39 307//39 305//39
f 308//40 312//40 311//40 307//40
f 312//41 310//41 309//41 311//41
f 310//42 306//42 305//42 309//42
f 305//43 307//43 311//43 309//43
f 310//44 312//44 308//44 306//44
f 314//39 316//39 315//39 313//39
f 316//40 320//40 319//40 315//40
f 320//41 318//41 317//41 319//41
f 318//42 314//42 313//42 317//42
f 313//43 315//43 319//43 317//43
f 318//44 320//44 316//44 314//44
