# This file uses centimeters as units for non-parametric coordinates.

mtllib helmet.mtl
g helmet:pasted__tweakSet1
v -1.100605 3.035093 0.612382
v -1.100605 3.035092 -0.856759
v 0.035539 3.024069 -1.164051
v 0.035539 3.038903 0.919673
v 0.035539 3.139663 1.191293
v -1.440219 3.139663 0.867672
v -1.428505 3.139663 -0.983188
v 0.035539 3.139663 -1.414096
v -1.303725 3.511336 0.697618
v -1.293728 3.511336 -0.865542
v 0.037437 3.511336 -1.283310
v 0.037037 3.038691 1.977509
v -1.873134 2.665431 1.215444
v -1.693138 2.945492 1.073249
v 0.019262 3.098247 1.753136
v -1.857080 2.665431 -1.316843
v -1.678736 2.945491 -1.198362
v 0.037037 2.540340 -2.114825
v 0.019262 2.814215 -1.917931
v -1.412762 3.035664 -0.026943
v -2.348460 2.665431 -0.028907
v -2.119504 2.945492 -0.045154
v -1.790901 3.139663 -0.026942
v -1.589362 3.511336 -0.032746
v -0.667467 3.047260 0.808308
v -1.027704 2.738623 1.787598
v -0.934703 3.022304 1.582125
v -0.778044 3.139663 1.149186
v -0.701209 3.511336 0.942849
v -0.701209 3.511336 -1.229812
v -0.761416 3.139663 -1.389705
v -0.912613 2.902910 -1.760383
v -1.003079 2.624855 -1.938475
v -0.655658 3.035663 -1.052687
v 1.240072 3.024069 0.612382
v 1.240071 3.024640 -0.856759
v 1.566459 3.139663 0.887503
v 1.578174 3.139662 -0.963357
v 1.437679 3.511336 0.715699
v 1.447677 3.511336 -0.847460
v 1.991597 2.665431 1.240935
v 1.773755 2.945492 1.096116
v 2.007651 2.665430 -1.291352
v 1.788157 2.945491 -1.175495
v 1.552227 3.024069 -0.026942
v 2.483115 2.665431 -0.028907
v 2.214704 2.945491 -0.045153
v 1.929214 3.139663 -0.026942
v 1.733698 3.511336 -0.032745
v 0.789424 3.024069 0.808308
v 1.138058 2.738623 1.801883
v 1.008114 3.022304 1.594939
v 0.900058 3.139663 1.160254
v 0.821487 3.511336 0.952516
v 0.821487 3.511336 -1.220145
v 0.916686 3.139663 -1.378636
v 1.030204 2.902909 -1.747568
v 1.162683 2.624855 -1.924190
v 0.802596 3.024069 -1.052687
g helmet:default1
v -0.457231 3.903004 0.601578
v 0.048394 3.903004 0.644426
v 0.048394 3.903004 -0.922293
v -0.457231 3.903004 -0.885672
v -1.065198 3.903004 -0.066245
v -0.869671 3.903004 0.433710
v -0.862828 3.903004 -0.636318
v 0.585099 3.903004 0.608195
v 0.585099 3.903004 -0.879054
v 1.006900 3.903004 0.446088
v 1.209534 3.903004 -0.066245
v 1.013744 3.903004 -0.623941
v 0.072168 4.183719 -0.138933
v 0.038355 3.080971 1.190686
v -0.414650 3.492332 1.190684
v -0.295268 3.159523 1.190686
v 0.420209 3.159523 1.190686
v 0.539591 3.492332 1.190684
v 0.049865 3.921599 1.190681
v -0.295267 3.843046 1.190681
v 0.420207 3.843046 1.190681
v 0.036973 3.056895 1.365874
v -0.441980 3.491820 1.365871
v -0.315760 3.139947 1.365873
v 0.440700 3.139947 1.365873
v 0.566920 3.491820 1.365871
v 0.049143 3.945674 1.365869
v -0.315758 3.862622 1.365868
v 0.440699 3.862622 1.365868
v 0.039274 3.096994 1.603828
v -0.396461 3.492674 1.603826
v -0.281631 3.172552 1.603827
v 0.406571 3.172552 1.603827
v 0.521402 3.492674 1.603826
v 0.050346 3.905576 1.603823
v -0.281629 3.830018 1.603822
v 0.406570 3.830018 1.603822
v 0.044551 3.188969 1.711509
v 0.045814 3.494633 1.711507
v -0.292055 3.494633 1.711507
v -0.203348 3.247338 1.711508
v 0.328289 3.247338 1.711508
v 0.416996 3.494633 1.711507
v 0.053104 3.813601 1.711505
v -0.203347 3.755232 1.711505
v 0.328288 3.755232 1.711504
g default
v -0.662419 3.042302 -0.027428
v 0.035539 3.032501 -0.027066
v 0.795116 3.024069 -0.026784
vt 0.120635 0.412947
vt 0.100112 0.486176
vt 0.068674 0.489090
vt 0.099582 0.388054
vt 0.145544 0.643900
vt 0.158292 0.602932
vt 0.210131 0.608711
vt 0.208634 0.647120
vt 0.118938 0.567738
vt 0.094077 0.597512
vt 0.158619 0.374492
vt 0.153052 0.356579
vt 0.315894 0.412741
vt 0.337992 0.387545
vt 0.363569 0.491237
vt 0.332546 0.487997
vt 0.278606 0.643615
vt 0.265917 0.603090
vt 0.332486 0.597002
vt 0.309557 0.567201
vt 0.279357 0.374277
vt 0.286114 0.356295
vt 0.180314 0.555608
vt 0.212576 0.559008
vt 0.153946 0.433600
vt 0.142772 0.482837
vt 0.176976 0.407477
vt 0.155341 0.534291
vt 0.247231 0.555532
vt 0.281600 0.433536
vt 0.259625 0.407330
vt 0.290135 0.484059
vt 0.274954 0.534027
vt 0.217206 0.402920
vt 0.216520 0.482851
vt 0.896513 0.549663
vt 0.896393 0.535380
vt 0.909832 0.535126
vt 0.906759 0.547030
vt 0.884386 0.547111
vt 0.881516 0.535195
vt 0.896228 0.520608
vt 0.905582 0.523290
vt 0.885977 0.523329
vt 0.980426 0.505978
vt 0.988276 0.583666
vt 0.933691 0.579953
vt 0.942325 0.531549
vt 0.898339 0.584870
vt 0.897855 0.580915
vt 0.802889 0.584088
vt 0.857031 0.580505
vt 0.812208 0.506351
vt 0.849020 0.531574
vt 0.898420 0.421954
vt 0.954340 0.420752
vt 0.922683 0.495526
vt 0.897035 0.487399
vt 0.839190 0.421007
vt 0.869391 0.495305
vt 0.922066 0.564799
vt 0.928774 0.533800
vt 0.897470 0.569450
vt 0.868639 0.565246
vt 0.862539 0.533875
vt 0.916219 0.507427
vt 0.896780 0.500405
vt 0.875571 0.507328
vt 0.911827 0.552643
vt 0.916169 0.534856
vt 0.896901 0.556400
vt 0.879102 0.552833
vt 0.875149 0.534934
vt 0.909346 0.518087
vt 0.896444 0.513834
vt 0.882259 0.518099
vt 0.564973 0.863204
vt 0.567783 0.861961
vt 0.564482 0.812420
vt 0.559508 0.811820
vt 0.548530 0.774088
vt 0.494524 0.753696
vt 0.495002 0.756931
vt 0.545293 0.777289
vt 0.415552 0.819879
vt 0.411940 0.818840
vt 0.407463 0.866230
vt 0.409666 0.867126
vt 0.556020 0.862797
vt 0.550346 0.817239
vt 0.574754 0.809387
vt 0.576907 0.862235
vt 0.495098 0.759738
vt 0.542058 0.778899
vt 0.556254 0.766838
vt 0.495954 0.745707
vt 0.419296 0.821643
vt 0.411591 0.866804
vt 0.400419 0.867134
vt 0.402756 0.815243
vt 0.436733 0.780349
vt 0.432869 0.782597
vt 0.434825 0.777885
vt 0.430867 0.771081
vt 0.559968 0.918136
vt 0.565135 0.914728
vt 0.550288 0.956818
vt 0.547766 0.956142
vt 0.492463 0.976804
vt 0.491674 0.980380
vt 0.414888 0.919193
vt 0.410601 0.918751
vt 0.549595 0.911998
vt 0.574062 0.918534
vt 0.546867 0.960114
vt 0.492199 0.973459
vt 0.555013 0.962399
vt 0.492756 0.987718
vt 0.418619 0.916491
vt 0.402063 0.924390
vt 0.431710 0.954615
vt 0.435668 0.956931
vt 0.432609 0.959048
vt 0.429625 0.966642
vt 0.000000 0.000000
vt 1.000000 1.000000
vt 0.000000 1.000000
vt 0.000000 0.000000
vt 1.000000 0.000000
vt 1.000000 1.000000
vt 0.000000 1.000000
vt 0.000000 0.000000
vt 1.000000 0.000000
vt 1.000000 1.000000
vt 0.000000 1.000000
vt 0.000000 0.000000
vt 1.000000 0.000000
vt 1.000000 1.000000
vt 0.000000 0.000000
vt 1.000000 1.000000
vt 0.000000 0.000000
vt 1.000000 0.000000
vt 0.000000 0.427495
vt 1.000000 0.427495
vt 0.000000 0.431600
vt 1.000000 0.431600
vt 0.000000 0.432134
vt 1.000000 0.432134
vn -0.248124 0.777708 0.577585
vn -0.248124 0.777708 0.577585
vn -0.371702 0.701370 0.608209
vn -0.390860 0.687617 0.611892
vn -0.735614 0.616492 0.280730
vn -0.774490 0.632472 -0.012024
vn -0.774100 0.633047 0.004537
vn -0.735614 0.616492 0.280730
vn -0.281990 0.585399 -0.760125
vn -0.284918 0.585485 -0.758966
vn -0.088709 0.567727 -0.818423
vn -0.088709 0.567727 -0.818423
vn -0.000001 0.000005 1.000000
vn -0.000001 0.000005 1.000000
vn -0.000001 0.000005 1.000000
vn -0.000001 0.000005 1.000000
vn -0.829605 0.454114 0.324862
vn -0.884808 0.465906 -0.006758
vn -0.884746 0.466063 -0.003123
vn -0.829605 0.454114 0.324862
vn -0.270452 0.401676 -0.874936
vn -0.263519 0.400907 -0.877400
vn -0.047119 0.367194 -0.928950
vn -0.047119 0.367194 -0.928950
vn 0.179583 -0.977061 -0.114465
vn 0.179583 -0.977061 -0.114465
vn 0.188002 -0.962865 -0.193768
vn 0.187015 -0.964989 -0.183908
vn -0.124105 0.969427 0.211683
vn -0.128508 0.967877 0.216101
vn -0.060158 0.987288 0.147120
vn -0.060158 0.987288 0.147121
vn 0.310416 -0.922704 -0.228601
vn 0.428352 -0.903607 0.003047
vn 0.428138 -0.903713 -0.000657
vn 0.305332 -0.923685 -0.231471
vn -0.371667 0.893535 0.251909
vn -0.506699 0.862121 0.002103
vn -0.506419 0.862225 -0.010362
vn -0.378541 0.891454 0.249032
vn 0.101035 -0.888646 0.447325
vn 0.108470 -0.888751 0.445372
vn 0.026220 -0.884695 0.465432
vn 0.026220 -0.884695 0.465432
vn -0.013501 0.842270 -0.538888
vn -0.013501 0.842270 -0.538888
vn -0.124462 0.855592 -0.502466
vn -0.122829 0.855481 -0.503057
vn 0.428352 -0.903607 0.003047
vn 0.348144 -0.898934 0.265921
vn 0.329890 -0.899244 0.287286
vn 0.428138 -0.903713 -0.000657
vn -0.774490 0.632472 -0.012024
vn -0.749365 0.597138 -0.286145
vn -0.749365 0.597138 -0.286145
vn -0.774100 0.633047 0.004537
vn -0.506699 0.862121 0.002103
vn -0.397808 0.863835 -0.309092
vn -0.391797 0.864061 -0.316060
vn -0.506419 0.862225 -0.010362
vn -0.884808 0.465906 -0.006758
vn -0.847238 0.430207 -0.311624
vn -0.847238 0.430207 -0.311624
vn -0.884746 0.466063 -0.003123
vn 0.188002 -0.962865 -0.193768
vn 0.310416 -0.922704 -0.228601
vn 0.305332 -0.923685 -0.231471
vn 0.187015 -0.964989 -0.183908
vn -0.371702 0.701370 0.608209
vn -0.478701 0.617020 0.624605
vn -0.478701 0.617020 0.624605
vn -0.390860 0.687617 0.611892
vn -0.371667 0.893535 0.251909
vn -0.378541 0.891454 0.249032
vn -0.128508 0.967877 0.216101
vn -0.124105 0.969427 0.211683
vn -0.332914 0.500270 0.799311
vn -0.332914 0.500270 0.799311
vn -0.332914 0.500270 0.799311
vn -0.332914 0.500270 0.799311
vn -0.475021 0.414434 -0.776273
vn -0.475021 0.414434 -0.776273
vn -0.263519 0.400907 -0.877400
vn -0.270452 0.401676 -0.874936
vn -0.124462 0.855592 -0.502466
vn -0.391797 0.864061 -0.316060
vn -0.397808 0.863835 -0.309092
vn -0.122829 0.855481 -0.503057
vn -0.461268 0.579284 -0.672058
vn -0.461268 0.579284 -0.672058
vn -0.284918 0.585485 -0.758966
vn -0.281990 0.585399 -0.760125
vn 0.329890 -0.899244 0.287286
vn 0.348144 -0.898934 0.265921
vn 0.108470 -0.888751 0.445372
vn 0.101035 -0.888646 0.447325
vn 0.232383 0.798268 0.555667
vn 0.376829 0.714032 0.590049
vn 0.344747 0.735148 0.583702
vn 0.232383 0.798268 0.555667
vn 0.688649 0.674413 0.266326
vn 0.688649 0.674413 0.266326
vn 0.721556 0.692246 0.012353
vn 0.721975 0.691919 -0.001138
vn 0.286104 0.611328 -0.737850
vn 0.090771 0.574983 -0.813114
vn 0.090771 0.574983 -0.813114
vn 0.263651 0.608467 -0.748502
vn 0.000001 0.000005 1.000000
vn 0.000001 0.000005 1.000000
vn 0.000001 0.000005 1.000000
vn 0.000001 0.000005 1.000000
vn 0.833675 0.442614 0.330271
vn 0.833675 0.442614 0.330271
vn 0.890335 0.455239 0.007806
vn 0.890414 0.455127 0.004786
vn 0.277802 0.409472 -0.868999
vn 0.054972 0.368099 -0.928160
vn 0.054972 0.368099 -0.928160
vn 0.249746 0.405374 -0.879374
vn -0.180590 -0.978043 -0.104013
vn -0.175301 -0.967774 -0.180782
vn -0.173877 -0.964448 -0.199017
vn -0.180590 -0.978043 -0.104013
vn 0.124669 0.966435 0.224633
vn 0.055961 0.986785 0.152068
vn 0.055961 0.986785 0.152068
vn 0.120166 0.968091 0.219907
vn -0.311039 -0.919710 -0.239558
vn -0.314458 -0.919077 -0.237517
vn -0.441755 -0.896986 0.016403
vn -0.442142 -0.896851 0.013013
vn 0.407398 0.871114 0.274203
vn 0.398524 0.874197 0.277413
vn 0.559664 0.828700 -0.005690
vn 0.560015 0.828418 0.010335
vn -0.101257 -0.892008 0.440533
vn -0.034290 -0.887268 0.459977
vn -0.034290 -0.887268 0.459977
vn -0.109454 -0.892289 0.437995
vn 0.019285 0.841500 -0.539912
vn 0.132479 0.848823 -0.511810
vn 0.120233 0.848588 -0.515212
vn 0.019285 0.841500 -0.539912
vn -0.442142 -0.896851 0.013013
vn -0.441755 -0.896986 0.016403
vn -0.322465 -0.904278 0.279817
vn -0.340755 -0.904075 0.257944
vn 0.721975 0.691919 -0.001138
vn 0.721556 0.692246 0.012353
vn 0.703222 0.659700 -0.265095
vn 0.703222 0.659700 -0.265095
vn 0.560015 0.828418 0.010335
vn 0.559664 0.828700 -0.005690
vn 0.417662 0.840722 -0.344594
vn 0.436315 0.838838 -0.325546
vn 0.890414 0.455127 0.004786
vn 0.890335 0.455239 0.007806
vn 0.852846 0.419988 -0.310265
vn 0.852846 0.419988 -0.310265
vn -0.173877 -0.964448 -0.199017
vn -0.175301 -0.967774 -0.180782
vn -0.314458 -0.919077 -0.237517
vn -0.311039 -0.919710 -0.239558
vn 0.344747 0.735148 0.583702
vn 0.376829 0.714032 0.590049
vn 0.454837 0.656259 0.602037
vn 0.454837 0.656259 0.602037
vn 0.407398 0.871114 0.274203
vn 0.124669 0.966435 0.224633
vn 0.120166 0.968091 0.219907
vn 0.398524 0.874197 0.277413
vn 0.319736 0.500098 0.804780
vn 0.319736 0.500098 0.804780
vn 0.319736 0.500098 0.804780
vn 0.319736 0.500098 0.804780
vn 0.471777 0.427825 -0.770969
vn 0.277802 0.409472 -0.868999
vn 0.249746 0.405374 -0.879374
vn 0.471777 0.427825 -0.770969
vn 0.120233 0.848588 -0.515212
vn 0.132479 0.848823 -0.511810
vn 0.436315 0.838838 -0.325546
vn 0.417662 0.840722 -0.344594
vn 0.450395 0.620475 -0.641993
vn 0.286104 0.611328 -0.737850
vn 0.263651 0.608467 -0.748502
vn 0.450395 0.620475 -0.641993
vn -0.322465 -0.904278 0.279817
vn -0.101257 -0.892008 0.440533
vn -0.109454 -0.892289 0.437995
vn -0.340755 -0.904075 0.257944
vn -0.000002 0.000008 1.000000
vn -0.000002 0.000008 1.000000
vn -0.000002 0.000008 1.000000
vn -0.000002 0.000008 1.000000
vn -0.053126 0.677596 -0.733513
vn -0.053126 0.677596 -0.733513
vn -0.053126 0.677596 -0.733513
vn -0.053126 0.677596 -0.733513
vn -0.574049 0.787442 0.224504
vn -0.574049 0.787442 0.224504
vn -0.574049 0.787443 0.224504
vn -0.574049 0.787443 0.224504
vn -0.261047 0.721455 0.641372
vn -0.261047 0.721455 0.641372
vn -0.261047 0.721455 0.641372
vn -0.261047 0.721455 0.641372
vn -0.356756 0.732108 -0.580296
vn -0.356756 0.732108 -0.580296
vn -0.356756 0.732108 -0.580296
vn -0.356756 0.732108 -0.580296
vn -0.593738 0.776563 -0.210771
vn -0.593738 0.776563 -0.210771
vn -0.593738 0.776563 -0.210771
vn -0.593738 0.776563 -0.210771
vn 0.000002 0.000008 1.000000
vn 0.000002 0.000008 1.000000
vn 0.000002 0.000008 1.000000
vn 0.000002 0.000008 1.000000
vn 0.059199 0.675666 -0.734828
vn 0.059199 0.675666 -0.734828
vn 0.059199 0.675666 -0.734828
vn 0.059199 0.675666 -0.734827
vn 0.249006 0.719869 0.647908
vn 0.249006 0.719869 0.647908
vn 0.249006 0.719869 0.647908
vn 0.249006 0.719869 0.647908
vn 0.573622 0.787074 0.226874
vn 0.573622 0.787074 0.226874
vn 0.573622 0.787074 0.226874
vn 0.573622 0.787074 0.226874
vn 0.593936 0.777022 -0.208512
vn 0.593936 0.777022 -0.208512
vn 0.593936 0.777022 -0.208513
vn 0.593936 0.777022 -0.208512
vn 0.351479 0.726431 -0.590560
vn 0.351479 0.726431 -0.590560
vn 0.351479 0.726431 -0.590560
vn 0.351479 0.726431 -0.590560
vn -0.028510 0.941274 0.336438
vn -0.028510 0.941274 0.336438
vn -0.028510 0.941274 0.336438
vn -0.024378 0.941337 -0.336586
vn -0.024378 0.941337 -0.336586
vn -0.024378 0.941337 -0.336586
vn -0.233126 0.968163 0.091174
vn -0.233126 0.968163 0.091174
vn -0.233126 0.968163 0.091174
vn -0.113927 0.953242 0.279910
vn -0.113927 0.953242 0.279910
vn -0.113927 0.953242 0.279910
vn -0.153855 0.955876 -0.250260
vn -0.153855 0.955876 -0.250260
vn -0.153855 0.955876 -0.250260
vn -0.243933 0.965918 -0.086594
vn -0.243933 0.965918 -0.086594
vn -0.243933 0.965918 -0.086594
vn 0.022808 0.940917 0.337868
vn 0.022808 0.940917 0.337868
vn 0.022808 0.940917 0.337868
vn 0.027226 0.940770 -0.337950
vn 0.027226 0.940770 -0.337950
vn 0.027226 0.940770 -0.337950
vn 0.108865 0.952842 0.283267
vn 0.108865 0.952842 0.283267
vn 0.108865 0.952842 0.283267
vn 0.233044 0.968088 0.092171
vn 0.233044 0.968088 0.092171
vn 0.233044 0.968088 0.092171
vn 0.243895 0.966014 -0.085624
vn 0.243895 0.966014 -0.085624
vn 0.243895 0.966014 -0.085624
vn 0.152541 0.954484 -0.256302
vn 0.152541 0.954484 -0.256302
vn 0.152541 0.954484 -0.256302
vn -0.341512 0.245132 0.907348
vn -0.341512 0.245132 0.907348
vn -0.341512 0.245132 0.907348
vn -0.341512 0.245132 0.907348
vn -0.057825 -0.970333 -0.234755
vn -0.057825 -0.970333 -0.234755
vn -0.057825 -0.970333 -0.234755
vn -0.057825 -0.970333 -0.234755
vn 0.045652 -0.897581 -0.438480
vn 0.045652 -0.897581 -0.438480
vn 0.045652 -0.897581 -0.438480
vn 0.045652 -0.897581 -0.438480
vn 0.322187 0.250542 0.912921
vn 0.322187 0.250542 0.912921
vn 0.322187 0.250542 0.912921
vn 0.322187 0.250542 0.912921
vn -0.094314 0.994296 0.049801
vn -0.094314 0.994296 0.049801
vn -0.094314 0.994296 0.049801
vn -0.094314 0.994296 0.049801
vn -0.713945 0.549146 0.434421
vn -0.713945 0.549146 0.434421
vn -0.713945 0.549146 0.434421
vn -0.713945 0.549146 0.434421
vn 0.712703 0.545875 0.440540
vn 0.712703 0.545875 0.440540
vn 0.712703 0.545875 0.440540
vn 0.712703 0.545875 0.440540
vn 0.088126 0.994893 0.049217
vn 0.088126 0.994893 0.049217
vn 0.088126 0.994893 0.049217
vn 0.088126 0.994893 0.049217
vn -0.931154 -0.334015 -0.146241
vn -0.931154 -0.334015 -0.146241
vn -0.931154 -0.334015 -0.146241
vn -0.931154 -0.334015 -0.146241
vn -0.227108 -0.964558 -0.134348
vn -0.227108 -0.964558 -0.134348
vn -0.227108 -0.964558 -0.134348
vn -0.227108 -0.964558 -0.134348
vn 0.199735 -0.970937 -0.131858
vn 0.199735 -0.970937 -0.131858
vn 0.199735 -0.970937 -0.131858
vn 0.199735 -0.970937 -0.131858
vn 0.931154 -0.334015 -0.146240
vn 0.931154 -0.334015 -0.146240
vn 0.931154 -0.334015 -0.146240
vn 0.931154 -0.334015 -0.146240
vn -0.219933 0.966309 -0.133706
vn -0.219933 0.966309 -0.133706
vn -0.219933 0.966309 -0.133706
vn -0.219933 0.966309 -0.133706
vn -0.936627 0.318828 -0.145183
vn -0.936627 0.318828 -0.145183
vn -0.936627 0.318828 -0.145183
vn -0.936627 0.318828 -0.145183
vn 0.936627 0.318828 -0.145184
vn 0.936627 0.318828 -0.145184
vn 0.936627 0.318828 -0.145184
vn 0.936627 0.318828 -0.145184
vn 0.205665 0.969624 -0.132408
vn 0.205665 0.969624 -0.132408
vn 0.205665 0.969624 -0.132408
vn 0.205665 0.969624 -0.132408
vn -0.926181 -0.332229 0.178362
vn -0.926181 -0.332229 0.178362
vn -0.926181 -0.332229 0.178362
vn -0.926181 -0.332229 0.178362
vn -0.226083 -0.960204 0.163995
vn -0.226083 -0.960204 0.163995
vn -0.226083 -0.960204 0.163995
vn -0.226083 -0.960204 0.163995
vn 0.198866 -0.966715 0.160982
vn 0.198866 -0.966715 0.160982
vn 0.198866 -0.966715 0.160982
vn 0.198866 -0.966715 0.160982
vn 0.926181 -0.332228 0.178362
vn 0.926181 -0.332228 0.178362
vn 0.926181 -0.332228 0.178362
vn 0.926181 -0.332228 0.178362
vn -0.218950 0.961988 0.163215
vn -0.218950 0.961988 0.163215
vn -0.218950 0.961988 0.163215
vn -0.218950 0.961988 0.163215
vn -0.931695 0.317151 0.177086
vn -0.931695 0.317151 0.177086
vn -0.931695 0.317151 0.177086
vn -0.931695 0.317151 0.177086
vn 0.931695 0.317152 0.177086
vn 0.931695 0.317152 0.177086
vn 0.931695 0.317152 0.177086
vn 0.931695 0.317152 0.177086
vn 0.204764 0.965372 0.161646
vn 0.204764 0.965372 0.161646
vn 0.204764 0.965372 0.161646
vn 0.204764 0.965372 0.161646
vn -0.693133 -0.248630 0.676573
vn -0.693133 -0.248630 0.676573
vn -0.693133 -0.248630 0.676573
vn -0.693133 -0.248630 0.676573
vn -0.175261 -0.744353 0.644377
vn -0.175261 -0.744353 0.644377
vn -0.175261 -0.744353 0.644377
vn -0.175261 -0.744353 0.644377
vn 0.155294 -0.754901 0.637187
vn 0.155294 -0.754901 0.637187
vn 0.155294 -0.754901 0.637187
vn 0.155294 -0.754901 0.637187
vn 0.693132 -0.248630 0.676573
vn 0.693132 -0.248630 0.676573
vn 0.693132 -0.248630 0.676573
vn 0.693132 -0.248630 0.676573
vn -0.170054 0.747154 0.642528
vn -0.170054 0.747154 0.642528
vn -0.170054 0.747154 0.642528
vn -0.170054 0.747154 0.642528
vn -0.699455 0.238102 0.673847
vn -0.699455 0.238102 0.673847
vn -0.699455 0.238102 0.673847
vn -0.699455 0.238102 0.673847
vn 0.699455 0.238102 0.673847
vn 0.699455 0.238102 0.673847
vn 0.699455 0.238102 0.673847
vn 0.699455 0.238102 0.673847
vn 0.159644 0.752649 0.638775
vn 0.159644 0.752649 0.638775
vn 0.159644 0.752649 0.638775
vn 0.159644 0.752649 0.638775
vn 0.010672 -0.999939 0.002797
vn 0.010830 -0.999938 0.002703
vn 0.015945 -0.999873 -0.000346
vn 0.015945 -0.999873 -0.000346
vn -0.013465 -0.999889 0.006334
vn -0.013465 -0.999889 0.006334
vn -0.014217 -0.999877 0.006654
vn -0.014219 -0.999877 0.006655
vn -0.015110 -0.999880 0.003545
vn -0.015110 -0.999880 0.003545
vn -0.009988 -0.999943 0.003728
vn -0.009969 -0.999943 0.003729
vn 0.000000 -1.000000 0.000000
vn 0.000000 -1.000000 0.000000
vn 0.000301 -1.000000 -0.000220
vn 0.000313 -1.000000 -0.000229
vn 0.006863 -0.999964 0.005067
vn 0.006863 -0.999964 0.005067
vn -0.014846 -0.999866 0.006923
vn -0.014846 -0.999866 0.006923
vn -0.005807 -0.999976 0.003878
vn -0.005807 -0.999976 0.003878
vn 0.000543 -1.000000 -0.000397
vn 0.000543 -1.000000 -0.000397
s off
g helmet:group2 helmet:pasted__polySurface17 helmet:polySurface1
usemtl helmet:lambert15SG
f 12/77/1 15/78/2 27/79/3 26/80/4
f 14/81/5 22/82/6 21/83/7 13/84/8
f 33/85/9 32/86/10 19/87/11 18/88/12
f 97/36/13 98/37/14 99/38/15 100/39/16
f 9/1/17 24/2/18 23/3/19 6/4/20
f 31/5/21 30/6/22 11/7/23 8/8/24
f 4/89/25 12/77/26 26/80/27 25/90/28
f 28/91/29 27/79/30 15/78/31 5/92/32
f 13/84/33 21/83/34 20/93/35 1/94/36
f 6/95/37 23/96/38 22/82/39 14/81/40
f 34/97/41 33/85/42 18/88/43 3/98/44
f 8/99/45 19/87/46 32/86/47 31/100/48
f 21/83/49 16/101/50 2/102/51 20/93/52
f 22/82/53 17/103/54 16/101/55 21/83/56
f 23/96/57 7/104/58 17/103/59 22/82/60
f 24/2/61 10/9/62 7/10/63 23/3/64
f 26/80/65 13/84/66 1/94/67 25/90/68
f 27/79/69 14/81/70 13/84/71 26/80/72
f 6/95/73 14/81/74 27/79/75 28/91/76
f 29/11/77 9/1/78 6/4/79 28/12/80
f 7/10/81 10/9/82 30/6/83 31/5/84
f 32/86/85 17/103/86 7/104/87 31/100/88
f 16/101/89 17/103/90 32/86/91 33/85/92
f 2/102/93 16/101/94 33/85/95 34/97/96
f 12/77/97 51/105/98 52/106/99 15/78/100
f 42/107/101 41/108/102 46/109/103 47/110/104
f 58/111/105 18/88/106 19/87/107 57/112/108
f 97/36/109 101/40/110 102/41/111 98/37/112
f 39/13/113 37/14/114 48/15/115 49/16/116
f 56/17/117 8/8/118 11/7/119 55/18/120
f 4/89/121 50/113/122 51/105/123 12/77/124
f 53/114/125 5/92/126 15/78/127 52/106/128
f 41/108/129 35/115/130 45/116/131 46/109/132
f 37/117/133 42/107/134 47/110/135 48/118/136
f 59/119/137 3/98/138 18/88/139 58/111/140
f 8/99/141 56/120/142 57/112/143 19/87/144
f 46/109/145 45/116/146 36/121/147 43/122/148
f 47/110/149 46/109/150 43/122/151 44/123/152
f 48/118/153 47/110/154 44/123/155 38/124/156
f 49/16/157 48/15/158 38/19/159 40/20/160
f 51/105/161 50/113/162 35/115/163 41/108/164
f 52/106/165 51/105/166 41/108/167 42/107/168
f 37/117/169 53/114/170 52/106/171 42/107/172
f 54/21/173 53/22/174 37/14/175 39/13/176
f 38/19/177 56/17/178 55/18/179 40/20/180
f 57/112/181 56/120/182 38/124/183 44/123/184
f 43/122/185 58/111/186 57/112/187 44/123/188
f 36/121/189 59/119/190 58/111/191 43/122/192
f 99/38/193 98/37/194 103/42/195 104/43/196
f 11/7/197 30/6/198 63/23/199 62/24/200
f 24/2/201 9/1/202 65/25/203 64/26/204
f 9/1/205 29/11/206 60/27/207 65/25/208
f 30/6/209 10/9/210 66/28/211 63/23/212
f 10/9/213 24/2/214 64/26/215 66/28/216
f 98/37/217 102/41/218 105/44/219 103/42/220
f 55/18/221 11/7/222 62/24/223 68/29/224
f 54/21/225 39/13/226 69/30/227 67/31/228
f 39/13/229 49/16/230 70/32/231 69/30/232
f 49/16/233 40/20/234 71/33/235 70/32/236
f 40/20/237 55/18/238 68/29/239 71/33/240
f 60/27/241 61/34/242 72/35/243
f 62/24/244 63/23/245 72/35/246
f 64/26/247 65/25/248 72/35/249
f 65/25/250 60/27/251 72/35/252
f 63/23/253 66/28/254 72/35/255
f 66/28/256 64/26/257 72/35/258
f 61/34/259 67/31/260 72/35/261
f 68/29/262 62/24/263 72/35/264
f 67/31/265 69/30/266 72/35/267
f 69/30/268 70/32/269 72/35/270
f 70/32/271 71/33/272 72/35/273
f 71/33/274 68/29/275 72/35/276
f 29/45/277 28/46/278 75/47/279 74/48/280
f 28/46/281 5/49/282 73/50/283 75/47/284
f 5/49/285 53/51/286 76/52/287 73/50/288
f 53/51/289 54/53/290 77/54/291 76/52/292
f 61/55/293 60/56/294 79/57/295 78/58/296
f 60/56/297 29/45/298 74/48/299 79/57/300
f 54/53/301 67/59/302 80/60/303 77/54/304
f 67/59/305 61/55/306 78/58/307 80/60/308
f 74/48/309 75/47/310 83/61/311 82/62/312
f 75/47/313 73/50/314 81/63/315 83/61/316
f 73/50/317 76/52/318 84/64/319 81/63/320
f 76/52/321 77/54/322 85/65/323 84/64/324
f 78/58/325 79/57/326 87/66/327 86/67/328
f 79/57/329 74/48/330 82/62/331 87/66/332
f 77/54/333 80/60/334 88/68/335 85/65/336
f 80/60/337 78/58/338 86/67/339 88/68/340
f 82/62/341 83/61/342 91/69/343 90/70/344
f 83/61/345 81/63/346 89/71/347 91/69/348
f 81/63/349 84/64/350 92/72/351 89/71/352
f 84/64/353 85/65/354 93/73/355 92/72/356
f 86/67/357 87/66/358 95/74/359 94/75/360
f 87/66/361 82/62/362 90/70/363 95/74/364
f 85/65/365 88/68/366 96/76/367 93/73/368
f 88/68/369 86/67/370 94/75/371 96/76/372
f 90/70/373 91/69/374 100/39/375 99/38/376
f 91/69/377 89/71/378 97/36/379 100/39/380
f 89/71/381 92/72/382 101/40/383 97/36/384
f 92/72/385 93/73/386 102/41/387 101/40/388
f 94/75/389 95/74/390 104/43/391 103/42/392
f 95/74/393 90/70/394 99/38/395 104/43/396
f 93/73/397 96/76/398 105/44/399 102/41/400
f 96/76/401 94/75/402 103/42/403 105/44/404
s 1
g helmet:polySurface1
f 20/142/405 106/143/406 25/125/407 1/141/408
s 2
f 4/128/409 25/129/410 106/144/411 107/145/412
s 3
f 50/132/413 4/133/414 107/146/415 108/147/416
s 4
f 35/136/417 50/137/418 108/148/419 45/139/420
s 1
f 2/126/421 34/127/422 106/143/406 20/142/405
s 2
f 107/145/412 106/144/411 34/130/423 3/131/424
s 3
f 108/147/416 107/146/415 3/134/425 59/135/426
s 4
f 108/148/419 59/138/427 36/140/428 45/139/420
