# Blender v2.77 (sub 0) OBJ File: 'dresser.blend'
# www.blender.org
mtllib dresser.mtl
o drawer_pull.007_Plane.007
v -0.434709 1.186058 2.635380
v -0.436087 1.191972 2.716840
v -0.435042 1.141972 2.611831
v -0.416305 1.141972 2.716840
v -0.435042 1.191972 2.751843
v -0.435042 1.188480 2.764978
v -0.434725 1.158639 2.615206
v -0.433893 1.171922 2.622775
v -0.435042 1.191972 2.646834
v -0.436087 1.191972 2.681837
v -0.435042 1.125305 2.611831
v -0.416305 1.141972 2.681837
v -0.426192 1.141972 2.646834
v -0.435042 1.141972 2.786846
v -0.426192 1.141972 2.751843
v -0.416305 1.158639 2.716840
v -0.427649 1.175305 2.716840
v -0.416305 1.125305 2.716840
v -0.435042 1.125305 2.786846
v -0.426192 1.125305 2.751843
v -0.435042 1.171824 2.778967
v -0.434497 1.175305 2.751843
v -0.435042 1.158639 2.784209
v -0.426879 1.158639 2.751843
v -0.427649 1.175305 2.681837
v -0.434497 1.175305 2.646834
v -0.416305 1.158639 2.681837
v -0.426879 1.158639 2.646834
v -0.416305 1.125305 2.681837
v -0.426192 1.125305 2.646834
vn 0.9694 0.0353 -0.2429
vn 0.9597 0.0198 0.2805
vn 0.9623 0.0000 0.2718
vn 0.9695 0.0000 0.2451
vn 0.9625 0.2594 0.0798
vn 0.8496 0.4833 0.2114
vn 0.9996 0.0237 0.0176
vn 0.9504 0.2697 0.1549
vn 0.9688 0.0393 0.2447
vn 0.9992 0.0373 0.0166
vn 0.9575 0.2523 -0.1398
vn 0.8922 0.4517 0.0000
vn 0.9625 0.2594 -0.0798
vn 0.8267 0.5627 0.0000
vn 0.8496 0.4833 -0.2114
vn 1.0000 0.0000 0.0000
vn 0.9597 0.0198 -0.2805
vn 0.9695 0.0000 -0.2451
vn 0.9623 0.0000 -0.2718
usemtl drawer_pull
s off
f 28//1 13//1 3//1 7//1
f 24//2 15//2 4//2 16//2
f 15//3 20//3 18//3 4//3
f 14//4 19//4 20//4 15//4
f 5//5 22//5 17//5 2//5
f 22//6 24//6 16//6 17//6
f 6//7 21//7 22//7 5//7
f 21//8 23//8 24//8 22//8
f 23//9 14//9 15//9 24//9
f 9//10 26//10 8//10 1//10
f 26//11 28//11 7//11 8//11
f 2//12 17//12 25//12 10//12
f 10//13 25//13 26//13 9//13
f 17//14 16//14 27//14 25//14
f 25//15 27//15 28//15 26//15
f 16//16 4//16 12//16 27//16
f 27//17 12//17 13//17 28//17
f 13//18 30//18 11//18 3//18
f 4//16 18//16 29//16 12//16
f 12//19 29//19 30//19 13//19
o drawer_pull.006_Plane.006
v -0.434709 1.186058 1.833570
v -0.436087 1.191972 1.915030
v -0.435042 1.141972 1.810021
v -0.416305 1.141972 1.915030
v -0.435042 1.191972 1.950033
v -0.435042 1.188480 1.963168
v -0.434725 1.158639 1.813396
v -0.433893 1.171922 1.820965
v -0.435042 1.191972 1.845024
v -0.436087 1.191972 1.880027
v -0.435042 1.125305 1.810021
v -0.416305 1.141972 1.880027
v -0.426192 1.141972 1.845024
v -0.435042 1.141972 1.985036
v -0.426192 1.141972 1.950033
v -0.416305 1.158639 1.915030
v -0.427649 1.175305 1.915030
v -0.416305 1.125305 1.915030
v -0.435042 1.125305 1.985036
v -0.426192 1.125305 1.950033
v -0.435042 1.171824 1.977157
v -0.434497 1.175305 1.950033
v -0.435042 1.158639 1.982399
v -0.426879 1.158639 1.950033
v -0.427649 1.175305 1.880027
v -0.434497 1.175305 1.845024
v -0.416305 1.158639 1.880027
v -0.426879 1.158639 1.845024
v -0.416305 1.125305 1.880027
v -0.426192 1.125305 1.845024
vn 0.9694 0.0353 -0.2429
vn 0.9597 0.0198 0.2805
vn 0.9623 0.0000 0.2718
vn 0.9695 0.0000 0.2451
vn 0.9625 0.2594 0.0798
vn 0.8496 0.4833 0.2114
vn 0.9996 0.0237 0.0176
vn 0.9504 0.2697 0.1549
vn 0.9688 0.0393 0.2447
vn 0.9992 0.0373 0.0166
vn 0.9575 0.2523 -0.1398
vn 0.8922 0.4517 0.0000
vn 0.9625 0.2594 -0.0798
vn 0.8267 0.5627 0.0000
vn 0.8496 0.4833 -0.2114
vn 1.0000 0.0000 0.0000
vn 0.9597 0.0198 -0.2805
vn 0.9695 0.0000 -0.2451
vn 0.9623 0.0000 -0.2718
usemtl drawer_pull
s off
f 58//20 43//20 33//20 37//20
f 54//21 45//21 34//21 46//21
f 45//22 50//22 48//22 34//22
f 44//23 49//23 50//23 45//23
f 35//24 52//24 47//24 32//24
f 52//25 54//25 46//25 47//25
f 36//26 51//26 52//26 35//26
f 51//27 53//27 54//27 52//27
f 53//28 44//28 45//28 54//28
f 39//29 56//29 38//29 31//29
f 56//30 58//30 37//30 38//30
f 32//31 47//31 55//31 40//31
f 40//32 55//32 56//32 39//32
f 47//33 46//33 57//33 55//33
f 55//34 57//34 58//34 56//34
f 46//35 34//35 42//35 57//35
f 57//36 42//36 43//36 58//36
f 43//37 60//37 41//37 33//37
f 34//35 48//35 59//35 42//35
f 42//38 59//38 60//38 43//38
o drawer_pull.005_Plane.005
v -0.434709 1.186058 0.601510
v -0.436087 1.191972 0.682970
v -0.435042 1.141972 0.577961
v -0.416305 1.141972 0.682970
v -0.435042 1.191972 0.717973
v -0.435042 1.188480 0.731108
v -0.434725 1.158639 0.581336
v -0.433893 1.171922 0.588905
v -0.435042 1.191972 0.612964
v -0.436087 1.191972 0.647967
v -0.435042 1.125305 0.577961
v -0.416305 1.141972 0.647967
v -0.426192 1.141972 0.612964
v -0.435042 1.141972 0.752976
v -0.426192 1.141972 0.717973
v -0.416305 1.158639 0.682970
v -0.427649 1.175305 0.682970
v -0.416305 1.125305 0.682970
v -0.435042 1.125305 0.752976
v -0.426192 1.125305 0.717973
v -0.435042 1.171824 0.745097
v -0.434497 1.175305 0.717973
v -0.435042 1.158639 0.750338
v -0.426879 1.158639 0.717973
v -0.427649 1.175305 0.647967
v -0.434497 1.175305 0.612964
v -0.416305 1.158639 0.647967
v -0.426879 1.158639 0.612964
v -0.416305 1.125305 0.647967
v -0.426192 1.125305 0.612964
vn 0.9694 0.0353 -0.2429
vn 0.9597 0.0198 0.2805
vn 0.9623 0.0000 0.2718
vn 0.9695 0.0000 0.2451
vn 0.9625 0.2594 0.0798
vn 0.8496 0.4833 0.2114
vn 0.9996 0.0237 0.0176
vn 0.9504 0.2697 0.1549
vn 0.9688 0.0393 0.2447
vn 0.9992 0.0373 0.0166
vn 0.9575 0.2523 -0.1398
vn 0.8922 0.4517 0.0000
vn 0.9625 0.2594 -0.0798
vn 0.8267 0.5627 0.0000
vn 0.8496 0.4833 -0.2114
vn 1.0000 0.0000 0.0000
vn 0.9597 0.0198 -0.2805
vn 0.9695 0.0000 -0.2451
vn 0.9623 0.0000 -0.2718
usemtl drawer_pull
s off
f 88//39 73//39 63//39 67//39
f 84//40 75//40 64//40 76//40
f 75//41 80//41 78//41 64//41
f 74//42 79//42 80//42 75//42
f 65//43 82//43 77//43 62//43
f 82//44 84//44 76//44 77//44
f 66//45 81//45 82//45 65//45
f 81//46 83//46 84//46 82//46
f 83//47 74//47 75//47 84//47
f 69//48 86//48 68//48 61//48
f 86//49 88//49 67//49 68//49
f 62//50 77//50 85//50 70//50
f 70//51 85//51 86//51 69//51
f 77//52 76//52 87//52 85//52
f 85//53 87//53 88//53 86//53
f 76//54 64//54 72//54 87//54
f 87//55 72//55 73//55 88//55
f 73//56 90//56 71//56 63//56
f 64//54 78//54 89//54 72//54
f 72//57 89//57 90//57 73//57
o drawer_pull.004_Plane.004
v -0.434709 1.186058 -0.246470
v -0.436087 1.191972 -0.165010
v -0.435042 1.141972 -0.270019
v -0.416305 1.141972 -0.165010
v -0.435042 1.191972 -0.130007
v -0.435042 1.188480 -0.116872
v -0.434725 1.158639 -0.266644
v -0.433893 1.171922 -0.259075
v -0.435042 1.191972 -0.235016
v -0.436087 1.191972 -0.200013
v -0.435042 1.125305 -0.270019
v -0.416305 1.141972 -0.200013
v -0.426192 1.141972 -0.235016
v -0.435042 1.141972 -0.095004
v -0.426192 1.141972 -0.130007
v -0.416305 1.158639 -0.165010
v -0.427649 1.175305 -0.165010
v -0.416305 1.125305 -0.165010
v -0.435042 1.125305 -0.095004
v -0.426192 1.125305 -0.130007
v -0.435042 1.171824 -0.102883
v -0.434497 1.175305 -0.130007
v -0.435042 1.158639 -0.097641
v -0.426879 1.158639 -0.130007
v -0.427649 1.175305 -0.200013
v -0.434497 1.175305 -0.235016
v -0.416305 1.158639 -0.200013
v -0.426879 1.158639 -0.235016
v -0.416305 1.125305 -0.200013
v -0.426192 1.125305 -0.235016
vn 0.9694 0.0354 -0.2429
vn 0.9597 0.0198 0.2805
vn 0.9623 0.0000 0.2718
vn 0.9695 0.0000 0.2451
vn 0.9625 0.2594 0.0798
vn 0.8496 0.4833 0.2114
vn 0.9996 0.0237 0.0176
vn 0.9504 0.2697 0.1549
vn 0.9688 0.0393 0.2447
vn 0.9992 0.0373 0.0166
vn 0.9575 0.2523 -0.1398
vn 0.8922 0.4517 0.0000
vn 0.9625 0.2594 -0.0798
vn 0.8267 0.5627 0.0000
vn 0.8496 0.4833 -0.2114
vn 1.0000 0.0000 0.0000
vn 0.9597 0.0198 -0.2805
vn 0.9695 0.0000 -0.2451
vn 0.9623 0.0000 -0.2718
usemtl drawer_pull
s off
f 118//58 103//58 93//58 97//58
f 114//59 105//59 94//59 106//59
f 105//60 110//60 108//60 94//60
f 104//61 109//61 110//61 105//61
f 95//62 112//62 107//62 92//62
f 112//63 114//63 106//63 107//63
f 96//64 111//64 112//64 95//64
f 111//65 113//65 114//65 112//65
f 113//66 104//66 105//66 114//66
f 99//67 116//67 98//67 91//67
f 116//68 118//68 97//68 98//68
f 92//69 107//69 115//69 100//69
f 100//70 115//70 116//70 99//70
f 107//71 106//71 117//71 115//71
f 115//72 117//72 118//72 116//72
f 106//73 94//73 102//73 117//73
f 117//74 102//74 103//74 118//74
f 103//75 120//75 101//75 93//75
f 94//73 108//73 119//73 102//73
f 102//76 119//76 120//76 103//76
o drawer_pull.003_Plane.003
v -0.434709 2.120946 -0.246470
v -0.436087 2.126860 -0.165010
v -0.435042 2.076860 -0.270019
v -0.416305 2.076860 -0.165010
v -0.435042 2.126860 -0.130008
v -0.435042 2.123369 -0.116873
v -0.434725 2.093527 -0.266645
v -0.433893 2.106810 -0.259076
v -0.435042 2.126860 -0.235016
v -0.436087 2.126860 -0.200013
v -0.435042 2.060194 -0.270019
v -0.416305 2.076860 -0.200013
v -0.426192 2.076860 -0.235016
v -0.435042 2.076860 -0.095005
v -0.426192 2.076860 -0.130008
v -0.416305 2.093527 -0.165010
v -0.427649 2.110194 -0.165010
v -0.416305 2.060194 -0.165010
v -0.435042 2.060194 -0.095005
v -0.426192 2.060194 -0.130008
v -0.435042 2.106713 -0.102884
v -0.434497 2.110194 -0.130008
v -0.435042 2.093527 -0.097642
v -0.426879 2.093527 -0.130008
v -0.427649 2.110194 -0.200013
v -0.434497 2.110194 -0.235016
v -0.416305 2.093527 -0.200013
v -0.426879 2.093527 -0.235016
v -0.416305 2.060194 -0.200013
v -0.426192 2.060194 -0.235016
vn 0.9694 0.0354 -0.2429
vn 0.9597 0.0198 0.2805
vn 0.9623 0.0000 0.2718
vn 0.9695 0.0000 0.2451
vn 0.9625 0.2594 0.0798
vn 0.8496 0.4833 0.2114
vn 0.9996 0.0237 0.0176
vn 0.9504 0.2697 0.1549
vn 0.9688 0.0393 0.2447
vn 0.9992 0.0373 0.0166
vn 0.9575 0.2523 -0.1398
vn 0.8922 0.4517 0.0000
vn 0.9625 0.2594 -0.0798
vn 0.8267 0.5627 0.0000
vn 0.8496 0.4833 -0.2114
vn 1.0000 0.0000 0.0000
vn 0.9597 0.0198 -0.2805
vn 0.9695 0.0000 -0.2451
vn 0.9623 0.0000 -0.2718
usemtl drawer_pull
s off
f 148//77 133//77 123//77 127//77
f 144//78 135//78 124//78 136//78
f 135//79 140//79 138//79 124//79
f 134//80 139//80 140//80 135//80
f 125//81 142//81 137//81 122//81
f 142//82 144//82 136//82 137//82
f 126//83 141//83 142//83 125//83
f 141//84 143//84 144//84 142//84
f 143//85 134//85 135//85 144//85
f 129//86 146//86 128//86 121//86
f 146//87 148//87 127//87 128//87
f 122//88 137//88 145//88 130//88
f 130//89 145//89 146//89 129//89
f 137//90 136//90 147//90 145//90
f 145//91 147//91 148//91 146//91
f 136//92 124//92 132//92 147//92
f 147//93 132//93 133//93 148//93
f 133//94 150//94 131//94 123//94
f 124//92 138//92 149//92 132//92
f 132//95 149//95 150//95 133//95
o drawer_pull.002_Plane.002
v -0.434709 2.120946 0.601514
v -0.436087 2.126860 0.682974
v -0.435042 2.076860 0.577965
v -0.416305 2.076860 0.682974
v -0.435042 2.126860 0.717977
v -0.435042 2.123369 0.731112
v -0.434725 2.093527 0.581339
v -0.433893 2.106810 0.588909
v -0.435042 2.126860 0.612968
v -0.436087 2.126860 0.647971
v -0.435042 2.060194 0.577965
v -0.416305 2.076860 0.647971
v -0.426192 2.076860 0.612968
v -0.435042 2.076860 0.752980
v -0.426192 2.076860 0.717977
v -0.416305 2.093527 0.682974
v -0.427649 2.110194 0.682974
v -0.416305 2.060194 0.682974
v -0.435042 2.060194 0.752980
v -0.426192 2.060194 0.717977
v -0.435042 2.106713 0.745100
v -0.434497 2.110194 0.717977
v -0.435042 2.093527 0.750342
v -0.426879 2.093527 0.717977
v -0.427649 2.110194 0.647971
v -0.434497 2.110194 0.612968
v -0.416305 2.093527 0.647971
v -0.426879 2.093527 0.612968
v -0.416305 2.060194 0.647971
v -0.426192 2.060194 0.612968
vn 0.9694 0.0353 -0.2429
vn 0.9597 0.0198 0.2805
vn 0.9623 0.0000 0.2718
vn 0.9695 0.0000 0.2451
vn 0.9625 0.2594 0.0798
vn 0.8496 0.4833 0.2114
vn 0.9996 0.0237 0.0176
vn 0.9504 0.2697 0.1549
vn 0.9688 0.0393 0.2447
vn 0.9992 0.0373 0.0166
vn 0.9575 0.2523 -0.1398
vn 0.8922 0.4517 0.0000
vn 0.9625 0.2594 -0.0798
vn 0.8267 0.5627 0.0000
vn 0.8496 0.4833 -0.2114
vn 1.0000 0.0000 0.0000
vn 0.9597 0.0198 -0.2805
vn 0.9695 0.0000 -0.2451
vn 0.9623 0.0000 -0.2718
usemtl drawer_pull
s off
f 178//96 163//96 153//96 157//96
f 174//97 165//97 154//97 166//97
f 165//98 170//98 168//98 154//98
f 164//99 169//99 170//99 165//99
f 155//100 172//100 167//100 152//100
f 172//101 174//101 166//101 167//101
f 156//102 171//102 172//102 155//102
f 171//103 173//103 174//103 172//103
f 173//104 164//104 165//104 174//104
f 159//105 176//105 158//105 151//105
f 176//106 178//106 157//106 158//106
f 152//107 167//107 175//107 160//107
f 160//108 175//108 176//108 159//108
f 167//109 166//109 177//109 175//109
f 175//110 177//110 178//110 176//110
f 166//111 154//111 162//111 177//111
f 177//112 162//112 163//112 178//112
f 163//113 180//113 161//113 153//113
f 154//111 168//111 179//111 162//111
f 162//114 179//114 180//114 163//114
o drawer_pull.001_Plane.001
v -0.434709 2.120946 1.833574
v -0.436087 2.126860 1.915033
v -0.435042 2.076860 1.810024
v -0.416305 2.076860 1.915033
v -0.435042 2.126860 1.950036
v -0.435042 2.123369 1.963171
v -0.434725 2.093527 1.813399
v -0.433893 2.106810 1.820968
v -0.435042 2.126860 1.845028
v -0.436087 2.126860 1.880031
v -0.435042 2.060194 1.810024
v -0.416305 2.076860 1.880031
v -0.426192 2.076860 1.845028
v -0.435042 2.076860 1.985039
v -0.426192 2.076860 1.950036
v -0.416305 2.093527 1.915033
v -0.427649 2.110194 1.915033
v -0.416305 2.060194 1.915033
v -0.435042 2.060194 1.985039
v -0.426192 2.060194 1.950036
v -0.435042 2.106713 1.977160
v -0.434497 2.110194 1.950036
v -0.435042 2.093527 1.982402
v -0.426879 2.093527 1.950036
v -0.427649 2.110194 1.880031
v -0.434497 2.110194 1.845028
v -0.416305 2.093527 1.880031
v -0.426879 2.093527 1.845028
v -0.416305 2.060194 1.880031
v -0.426192 2.060194 1.845028
vn 0.9694 0.0353 -0.2429
vn 0.9597 0.0198 0.2805
vn 0.9623 0.0000 0.2718
vn 0.9695 0.0000 0.2451
vn 0.9625 0.2594 0.0798
vn 0.8496 0.4833 0.2114
vn 0.9996 0.0237 0.0176
vn 0.9504 0.2697 0.1549
vn 0.9688 0.0393 0.2447
vn 0.9992 0.0373 0.0166
vn 0.9575 0.2523 -0.1398
vn 0.8922 0.4517 0.0000
vn 0.9625 0.2594 -0.0798
vn 0.8267 0.5627 0.0000
vn 0.8496 0.4833 -0.2114
vn 1.0000 0.0000 0.0000
vn 0.9597 0.0198 -0.2805
vn 0.9695 0.0000 -0.2451
vn 0.9623 0.0000 -0.2718
usemtl drawer_pull
s off
f 208//115 193//115 183//115 187//115
f 204//116 195//116 184//116 196//116
f 195//117 200//117 198//117 184//117
f 194//118 199//118 200//118 195//118
f 185//119 202//119 197//119 182//119
f 202//120 204//120 196//120 197//120
f 186//121 201//121 202//121 185//121
f 201//122 203//122 204//122 202//122
f 203//123 194//123 195//123 204//123
f 189//124 206//124 188//124 181//124
f 206//125 208//125 187//125 188//125
f 182//126 197//126 205//126 190//126
f 190//127 205//127 206//127 189//127
f 197//128 196//128 207//128 205//128
f 205//129 207//129 208//129 206//129
f 196//130 184//130 192//130 207//130
f 207//131 192//131 193//131 208//131
f 193//132 210//132 191//132 183//132
f 184//130 198//130 209//130 192//130
f 192//133 209//133 210//133 193//133
o drawer_pull_Plane
v -0.434709 2.120946 2.635376
v -0.436087 2.126860 2.716836
v -0.435042 2.076860 2.611827
v -0.416305 2.076860 2.716836
v -0.435042 2.126860 2.751839
v -0.435042 2.123369 2.764974
v -0.434725 2.093527 2.615202
v -0.433893 2.106810 2.622771
v -0.435042 2.126860 2.646830
v -0.436087 2.126860 2.681833
v -0.435042 2.060194 2.611827
v -0.416305 2.076860 2.681833
v -0.426192 2.076860 2.646830
v -0.435042 2.076860 2.786842
v -0.426192 2.076860 2.751839
v -0.416305 2.093527 2.716836
v -0.427649 2.110194 2.716836
v -0.416305 2.060194 2.716836
v -0.435042 2.060194 2.786842
v -0.426192 2.060194 2.751839
v -0.435042 2.106713 2.778963
v -0.434497 2.110194 2.751839
v -0.435042 2.093527 2.784204
v -0.426879 2.093527 2.751839
v -0.427649 2.110194 2.681833
v -0.434497 2.110194 2.646830
v -0.416305 2.093527 2.681833
v -0.426879 2.093527 2.646830
v -0.416305 2.060194 2.681833
v -0.426192 2.060194 2.646830
vn 0.9694 0.0353 -0.2429
vn 0.9597 0.0198 0.2805
vn 0.9623 0.0000 0.2718
vn 0.9695 0.0000 0.2451
vn 0.9625 0.2594 0.0798
vn 0.8496 0.4833 0.2114
vn 0.9996 0.0237 0.0176
vn 0.9504 0.2697 0.1549
vn 0.9688 0.0393 0.2447
vn 0.9992 0.0373 0.0166
vn 0.9575 0.2523 -0.1398
vn 0.8922 0.4517 0.0000
vn 0.9625 0.2594 -0.0798
vn 0.8267 0.5627 0.0000
vn 0.8496 0.4833 -0.2114
vn 1.0000 0.0000 0.0000
vn 0.9597 0.0198 -0.2805
vn 0.9695 0.0000 -0.2451
vn 0.9623 0.0000 -0.2718
usemtl drawer_pull
s off
f 238//134 223//134 213//134 217//134
f 234//135 225//135 214//135 226//135
f 225//136 230//136 228//136 214//136
f 224//137 229//137 230//137 225//137
f 215//138 232//138 227//138 212//138
f 232//139 234//139 226//139 227//139
f 216//140 231//140 232//140 215//140
f 231//141 233//141 234//141 232//141
f 233//142 224//142 225//142 234//142
f 219//143 236//143 218//143 211//143
f 236//144 238//144 217//144 218//144
f 212//145 227//145 235//145 220//145
f 220//146 235//146 236//146 219//146
f 227//147 226//147 237//147 235//147
f 235//148 237//148 238//148 236//148
f 226//149 214//149 222//149 237//149
f 237//150 222//150 223//150 238//150
f 223//151 240//151 221//151 213//151
f 214//149 228//149 239//149 222//149
f 222//152 239//152 240//152 223//152
o dresser_top_Cube.012
v -1.426422 2.647278 3.357026
v -0.463652 2.647278 3.357026
v -1.426422 2.647278 -0.878299
v -0.463652 2.647278 -0.878299
v -1.426422 2.615753 3.357026
v -0.463652 2.615753 3.357026
v -1.426422 2.615753 -0.878299
v -0.463652 2.615753 -0.878299
vn 0.0000 1.0000 0.0000
vn 0.0000 0.0000 -1.0000
vn 0.0000 -1.0000 0.0000
vn 0.0000 0.0000 1.0000
vn -1.0000 0.0000 0.0000
vn 1.0000 0.0000 0.0000
usemtl dresser_drawer
s off
f 242//153 244//153 243//153 241//153
f 244//154 248//154 247//154 243//154
f 248//155 246//155 245//155 247//155
f 246//156 242//156 241//156 245//156
f 241//157 243//157 247//157 245//157
f 246//158 248//158 244//158 242//158
o dresser_drawer_3_front_Cube.011
v -0.462291 0.828333 3.074295
v -0.462291 1.498037 3.074295
v -0.462291 0.828333 1.502441
v -0.462291 1.498037 1.502441
v -0.437515 0.828333 3.074295
v -0.437515 1.498037 3.074295
v -0.437515 0.828333 1.502441
v -0.437515 1.498037 1.502441
vn -1.0000 0.0000 0.0000
vn 0.0000 0.0000 -1.0000
vn 1.0000 0.0000 0.0000
vn 0.0000 0.0000 1.0000
vn 0.0000 -1.0000 0.0000
vn 0.0000 1.0000 0.0000
usemtl dresser_drawer_front
s off
f 250//159 252//159 251//159 249//159
f 252//160 256//160 255//160 251//160
f 256//161 254//161 253//161 255//161
f 254//162 250//162 249//162 253//162
f 249//163 251//163 255//163 253//163
f 254//164 256//164 252//164 250//164
o dresser_drawer_4_front_Cube.010
v -0.462291 0.828333 1.008792
v -0.462291 1.498037 1.008792
v -0.462291 0.828333 -0.563062
v -0.462291 1.498037 -0.563062
v -0.437515 0.828333 1.008792
v -0.437515 1.498037 1.008792
v -0.437515 0.828333 -0.563062
v -0.437515 1.498037 -0.563062
vn -1.0000 0.0000 0.0000
vn 0.0000 0.0000 -1.0000
vn 1.0000 0.0000 0.0000
vn 0.0000 0.0000 1.0000
vn 0.0000 -1.0000 0.0000
vn 0.0000 1.0000 0.0000
usemtl dresser_drawer_front
s off
f 258//165 260//165 259//165 257//165
f 260//166 264//166 263//166 259//166
f 264//167 262//167 261//167 263//167
f 262//168 258//168 257//168 261//168
f 257//169 259//169 263//169 261//169
f 262//170 264//170 260//170 258//170
o dresser_drawer_2_front_Cube.009
v -0.462291 1.754693 1.008792
v -0.462291 2.424397 1.008792
v -0.462291 1.754693 -0.563062
v -0.462291 2.424397 -0.563062
v -0.437515 1.754693 1.008792
v -0.437515 2.424397 1.008792
v -0.437515 1.754693 -0.563062
v -0.437515 2.424397 -0.563062
vn -1.0000 0.0000 0.0000
vn 0.0000 0.0000 -1.0000
vn 1.0000 0.0000 0.0000
vn 0.0000 0.0000 1.0000
vn 0.0000 -1.0000 0.0000
vn 0.0000 1.0000 0.0000
usemtl dresser_drawer_front
s off
f 266//171 268//171 267//171 265//171
f 268//172 272//172 271//172 267//172
f 272//173 270//173 269//173 271//173
f 270//174 266//174 265//174 269//174
f 265//175 267//175 271//175 269//175
f 270//176 272//176 268//176 266//176
o dresser_drawer_1_front_Cube.008
v -0.462292 1.754693 3.054586
v -0.462292 2.424397 3.054586
v -0.462292 1.754693 1.482732
v -0.462292 2.424397 1.482732
v -0.437516 1.754693 3.054586
v -0.437516 2.424397 3.054586
v -0.437516 1.754693 1.482732
v -0.437516 2.424397 1.482732
vn -1.0000 0.0000 0.0000
vn 0.0000 0.0000 -1.0000
vn 1.0000 0.0000 0.0000
vn 0.0000 0.0000 1.0000
vn 0.0000 -1.0000 0.0000
vn 0.0000 1.0000 0.0000
usemtl dresser_drawer_front
s off
f 274//177 276//177 275//177 273//177
f 276//178 280//178 279//178 275//178
f 280//179 278//179 277//179 279//179
f 278//180 274//180 273//180 277//180
f 273//181 275//181 279//181 277//181
f 278//182 280//182 276//182 274//182
o dresser_drawer_1_Cube.007
v -0.484045 1.660944 3.268659
v -0.484045 2.513063 3.268659
v -0.484045 1.660944 1.268659
v -0.484045 2.513063 1.268659
v -0.452521 1.660944 3.268659
v -0.452521 2.513063 3.268659
v -0.452521 1.660944 1.268659
v -0.452521 2.513063 1.268659
vn -1.0000 0.0000 0.0000
vn 0.0000 0.0000 -1.0000
vn 1.0000 0.0000 0.0000
vn 0.0000 0.0000 1.0000
vn 0.0000 -1.0000 0.0000
vn 0.0000 1.0000 0.0000
usemtl dresser_drawer
s off
f 282//183 284//183 283//183 281//183
f 284//184 288//184 287//184 283//184
f 288//185 286//185 285//185 287//185
f 286//186 282//186 281//186 285//186
f 281//187 283//187 287//187 285//187
f 286//188 288//188 284//188 282//188
o dresser_body_Cube.006
v -1.432075 0.530828 3.347943
v -1.432075 2.606665 3.347943
v -1.432075 0.530828 -0.877301
v -1.432075 2.606665 -0.877301
v -0.467175 0.530828 3.347943
v -0.467175 2.606665 3.347943
v -0.467175 0.530828 -0.877301
v -0.467175 2.606665 -0.877301
vn -1.0000 0.0000 0.0000
vn 0.0000 0.0000 -1.0000
vn 1.0000 0.0000 0.0000
vn 0.0000 0.0000 1.0000
vn 0.0000 -1.0000 0.0000
vn 0.0000 1.0000 0.0000
usemtl dresser_body
s off
f 290//189 292//189 291//189 289//189
f 292//190 296//190 295//190 291//190
f 296//191 294//191 293//191 295//191
f 294//192 290//192 289//192 293//192
f 289//193 291//193 295//193 293//193
f 294//194 296//194 292//194 290//194
o dresser_drawer_2_Cube.005
v -0.484044 1.660944 1.209091
v -0.484044 2.513063 1.209091
v -0.484044 1.660944 -0.790909
v -0.484044 2.513063 -0.790909
v -0.452520 1.660944 1.209091
v -0.452520 2.513063 1.209091
v -0.452520 1.660944 -0.790909
v -0.452520 2.513063 -0.790909
vn -1.0000 0.0000 0.0000
vn 0.0000 0.0000 -1.0000
vn 1.0000 0.0000 0.0000
vn 0.0000 0.0000 1.0000
vn 0.0000 -1.0000 0.0000
vn 0.0000 1.0000 0.0000
usemtl dresser_drawer
s off
f 298//195 300//195 299//195 297//195
f 300//196 304//196 303//196 299//196
f 304//197 302//197 301//197 303//197
f 302//198 298//198 297//198 301//198
f 297//199 299//199 303//199 301//199
f 302//200 304//200 300//200 298//200
o dresser_drawer_3_Cube.003
v -0.484044 0.741399 3.268659
v -0.484044 1.593518 3.268659
v -0.484044 0.741399 1.268659
v -0.484044 1.593518 1.268659
v -0.452520 0.741399 3.268659
v -0.452520 1.593518 3.268659
v -0.452520 0.741399 1.268659
v -0.452520 1.593518 1.268659
vn -1.0000 0.0000 0.0000
vn 0.0000 0.0000 -1.0000
vn 1.0000 0.0000 0.0000
vn 0.0000 0.0000 1.0000
vn 0.0000 -1.0000 0.0000
vn 0.0000 1.0000 0.0000
usemtl dresser_drawer
s off
f 306//201 308//201 307//201 305//201
f 308//202 312//202 311//202 307//202
f 312//203 310//203 309//203 311//203
f 310//204 306//204 305//204 309//204
f 305//205 307//205 311//205 309//205
f 310//206 312//206 308//206 306//206
o dresser_drawer_4_Cube.002
v -0.484044 0.741399 1.207412
v -0.484044 1.593518 1.207412
v -0.484044 0.741399 -0.792588
v -0.484044 1.593518 -0.792588
v -0.452520 0.741399 1.207412
v -0.452520 1.593518 1.207412
v -0.452520 0.741399 -0.792588
v -0.452520 1.593518 -0.792588
vn -1.0000 0.0000 0.0000
vn 0.0000 0.0000 -1.0000
vn 1.0000 0.0000 0.0000
vn 0.0000 0.0000 1.0000
vn 0.0000 -1.0000 0.0000
vn 0.0000 1.0000 0.0000
usemtl dresser_drawer
s off
f 314//207 316//207 315//207 313//207
f 316//208 320//208 319//208 315//208
f 320//209 318//209 317//209 319//209
f 318//210 314//210 313//210 317//210
f 313//211 315//211 319//211 317//211
f 318//212 320//212 316//212 314//212
